<?xml version="1.0" standalone="no"?>
<!DOCTYPE svg PUBLIC "-//W3C//DTD SVG 20010904//EN"
 "http://www.w3.org/TR/2001/REC-SVG-20010904/DTD/svg10.dtd">
<svg version="1.0" xmlns="http://www.w3.org/2000/svg"
 width="3125.000000pt" height="625.000000pt" viewBox="0 0 3125.000000 625.000000"
 preserveAspectRatio="xMidYMid meet">

<g transform="translate(0.000000,625.000000) scale(0.100000,-0.100000)"
fill="#000000" stroke="none">
<path d="M15301 5325 c-207 -48 -385 -212 -450 -416 -6 -20 -20 -53 -31 -74
-24 -46 -26 -123 -5 -151 8 -10 15 -29 15 -40 0 -44 43 -161 81 -227 22 -37
70 -96 106 -130 36 -34 84 -80 108 -102 28 -26 49 -60 64 -98 19 -54 20 -59 5
-82 -10 -15 -14 -35 -10 -52 3 -15 2 -34 -3 -42 -7 -11 -11 -9 -20 8 -8 14
-21 21 -41 21 -42 0 -78 19 -84 46 -3 12 -15 26 -26 29 -11 3 -20 12 -20 19 0
17 -32 46 -51 46 -8 0 -5 -6 9 -16 28 -20 28 -42 0 -53 -13 -5 -31 -18 -42
-30 -14 -16 -23 -18 -37 -10 -27 14 -24 26 16 66 33 33 34 36 18 49 -21 16
-59 18 -68 4 -3 -5 -3 -37 1 -71 6 -51 11 -62 30 -71 17 -8 24 -19 24 -40 0
-15 5 -28 10 -28 6 0 10 -11 10 -25 0 -15 -6 -25 -14 -25 -8 0 -31 -16 -52
-35 -42 -40 -37 -42 -85 46 -45 83 -147 208 -223 272 -192 163 -395 224 -654
199 -359 -36 -581 -175 -729 -457 l-42 -80 -1 165 c0 91 7 372 15 625 8 253
15 506 15 563 l0 102 -461 0 -462 0 7 -192 c3 -106 8 -647 10 -1203 2 -631 1
-877 -4 -655 -7 357 -14 434 -50 568 -77 281 -271 481 -535 548 -102 26 -314
24 -416 -4 -236 -64 -443 -238 -553 -467 -23 -49 -47 -101 -53 -114 -9 -23
-11 -18 -27 45 -65 263 -265 464 -531 535 -106 29 -319 31 -414 6 -271 -73
-451 -245 -552 -530 -18 -48 -34 -86 -36 -84 -2 3 -31 136 -64 298 -33 161
-61 293 -62 294 -1 1 -95 -1 -209 -4 -113 -3 -262 -3 -330 1 -67 3 -326 7
-575 7 l-451 1 -7 -32 c-37 -174 -463 -1488 -473 -1458 -3 8 -59 173 -124 365
-150 442 -265 799 -314 982 l-38 143 -482 2 -483 3 80 200 c43 110 79 203 79
206 0 10 -215 108 -348 159 -510 192 -1091 279 -1606 239 -643 -49 -1105 -269
-1280 -609 -90 -172 -129 -428 -92 -600 55 -257 253 -421 617 -510 238 -58
440 -78 914 -90 376 -10 493 -22 622 -65 91 -31 144 -67 172 -116 44 -78 15
-137 -92 -188 -99 -47 -189 -62 -414 -68 -295 -8 -535 19 -843 97 -204 51
-456 147 -588 222 -30 17 -57 26 -61 22 -4 -5 -23 -47 -41 -94 -83 -215 -174
-394 -307 -605 l-63 -100 83 -38 c545 -255 1274 -386 1942 -348 943 54 1370
332 1436 936 48 433 -151 700 -626 837 -232 67 -480 95 -935 108 -421 11 -540
25 -674 77 -224 89 -182 265 76 319 101 21 520 30 670 15 236 -24 610 -115
813 -196 111 -45 228 -105 292 -151 l48 -34 59 175 c32 96 61 175 65 175 11
-1 383 -872 563 -1320 165 -412 372 -976 362 -991 -9 -16 -157 -81 -230 -101
-69 -19 -104 -22 -284 -22 -170 0 -222 4 -305 21 -55 12 -101 20 -103 18 -1
-1 10 -36 26 -76 59 -147 128 -397 214 -764 l14 -60 108 -3 c252 -6 538 58
768 174 238 120 479 339 648 589 103 152 199 357 457 975 114 272 397 978 424
1055 l13 40 7 -50 c19 -134 7 -1304 -17 -1628 l-6 -87 492 0 493 0 -7 114
c-11 181 -8 927 4 1003 27 176 96 295 208 360 68 40 180 44 254 11 95 -44 153
-119 185 -241 14 -54 15 -115 9 -497 -3 -239 -9 -506 -12 -593 l-7 -157 462 0
462 0 -8 133 c-4 72 -8 339 -8 592 l0 460 27 73 c43 117 113 196 213 238 60
25 184 16 251 -19 65 -33 127 -103 156 -176 20 -50 22 -78 26 -266 4 -193 -10
-705 -25 -938 l-6 -97 863 2 864 3 53 230 c29 127 55 241 59 255 5 22 11 15
47 -55 148 -284 371 -426 727 -465 398 -44 727 145 917 525 39 78 83 196 98
263 3 17 8 32 10 32 1 0 19 -7 38 -15 21 -8 67 -15 106 -15 l70 0 25 -55 c31
-69 136 -176 266 -272 91 -68 245 -213 225 -213 -5 0 -35 25 -66 56 l-56 56
-50 -36 c-65 -46 -145 -81 -222 -97 -61 -13 -62 -13 -84 13 -32 38 -61 49
-125 49 -31 0 -90 2 -129 5 -55 4 -80 2 -104 -10 -18 -9 -43 -16 -56 -16 -40
0 -82 -28 -103 -69 -43 -85 -47 -271 -6 -271 10 0 15 -30 19 -112 7 -141 16
-169 93 -276 10 -13 13 -22 8 -21 -5 1 -11 0 -14 -1 -6 -3 -51 -9 -97 -13 -18
-2 -36 -7 -40 -12 -5 -4 -3 -5 3 -2 7 4 11 0 10 -10 0 -9 4 -18 10 -20 7 -2
11 2 10 9 0 7 4 14 9 16 6 1 10 -18 10 -42 0 -24 -3 -42 -7 -40 -5 3 -8 0 -8
-5 0 -6 8 -11 18 -12 9 0 26 -3 37 -5 41 -10 60 -10 74 0 11 8 13 8 8 0 -4 -8
3 -12 21 -12 15 0 44 -3 64 -5 21 -2 35 0 32 5 -3 4 -1 8 5 8 5 0 12 -4 15 -8
6 -11 43 -9 53 3 5 4 2 5 -6 0 -9 -5 -12 -4 -7 3 4 8 2 10 -8 6 -8 -3 -19 3
-26 15 -8 16 -18 20 -37 17 -14 -3 -28 -8 -32 -12 -3 -4 2 -4 12 -1 13 5 17 3
15 -5 -3 -7 -14 -13 -25 -14 -15 -1 -19 4 -17 22 1 13 -4 28 -11 34 -11 9 -14
6 -12 -17 1 -15 -2 -28 -8 -28 -5 0 -9 6 -9 13 2 15 -12 16 -21 2 -4 -6 -11
-8 -16 -4 -5 3 -7 10 -3 15 3 5 9 7 14 4 11 -7 33 22 37 48 2 17 1 19 -6 7 -5
-8 -8 -17 -5 -21 2 -4 -4 -13 -13 -20 -15 -12 -16 -12 -10 3 3 10 2 20 -4 24
-6 3 -8 12 -6 19 3 7 -3 12 -16 11 -15 -1 -22 -8 -23 -23 -1 -13 4 -19 11 -16
14 5 31 -15 20 -25 -3 -3 -10 0 -16 8 -7 12 -8 10 -6 -7 2 -11 9 -29 17 -40
14 -17 14 -17 -4 -3 -10 8 -30 14 -45 15 -24 0 -26 3 -26 48 0 27 4 51 9 54 5
4 6 2 3 -3 -3 -6 3 -11 14 -11 11 -1 17 2 14 6 -2 5 10 7 28 5 59 -6 72 -11
72 -29 0 -10 6 -20 14 -23 10 -3 11 0 5 9 -7 12 -5 12 9 1 9 -8 21 -11 26 -8
5 4 13 1 17 -5 4 -7 3 -9 -4 -5 -6 3 -14 1 -18 -5 -4 -8 -9 -7 -16 2 -8 11 -9
11 -5 -1 5 -18 45 -22 60 -5 9 10 14 9 24 -4 9 -12 14 -13 24 -4 7 8 18 9 28
4 9 -5 19 -9 24 -10 4 -1 7 -3 7 -6 0 -3 0 -8 0 -11 0 -4 -7 -1 -15 6 -24 20
-42 -2 -24 -27 11 -16 26 -19 72 -18 31 0 57 -3 57 -8 0 -5 6 -4 13 2 8 6 18
7 22 3 5 -4 5 -1 1 5 -9 16 6 17 22 1 7 -7 12 -9 12 -4 0 4 7 0 16 -8 8 -9 20
-14 25 -10 6 3 17 0 25 -7 8 -7 14 -8 13 -3 -4 22 2 33 15 28 8 -3 17 -1 21 5
3 6 11 11 16 11 6 0 7 -6 3 -12 -5 -8 0 -7 11 2 17 14 18 14 6 -8 -6 -12 -10
-22 -9 -23 20 -8 156 -3 167 5 8 6 12 7 9 1 -7 -12 421 -14 440 -2 6 5 16 6
20 3 12 -7 38 12 29 21 -5 4 -12 1 -17 -7 -6 -10 -10 -11 -10 -3 0 7 -7 10
-17 6 -15 -5 -15 -3 2 11 11 10 14 14 7 11 -15 -8 -67 42 -67 65 0 8 -8 14
-17 12 -28 -4 -32 20 -7 39 l24 18 -27 24 c-18 16 -29 21 -32 14 -4 -9 -8 -8
-12 1 -5 10 -9 9 -20 -5 -13 -17 -15 -17 -29 1 -8 11 -15 14 -15 8 0 -7 -5
-12 -11 -12 -5 0 -7 5 -4 10 3 6 1 10 -5 10 -7 0 -10 -7 -6 -17 6 -17 5 -17
-8 0 -16 21 -30 23 -23 2 4 -8 1 -17 -5 -21 -7 -4 -8 -3 -4 4 5 8 2 10 -8 6
-10 -4 -18 1 -22 11 -5 13 -9 14 -15 4 -4 -7 -4 -18 1 -24 10 -12 69 -13 89
-1 7 5 17 4 23 -2 6 -6 17 -8 24 -5 15 6 16 4 18 -42 2 -22 7 -29 18 -27 9 1
19 -2 23 -7 3 -6 12 -8 20 -4 8 3 15 0 15 -6 0 -12 -2 -13 -40 -15 -14 -1 -31
-5 -38 -10 -7 -4 -20 -2 -30 6 -15 12 -16 11 -3 -5 8 -10 21 -15 28 -12 9 3
13 0 10 -7 -2 -7 -17 -13 -33 -13 -16 0 -34 -3 -39 -7 -6 -4 -17 -3 -25 2 -9
5 -19 5 -26 -1 -15 -13 -65 -22 -62 -12 2 5 -2 8 -7 8 -6 0 -9 -4 -7 -8 1 -5
-3 -7 -10 -4 -7 2 -12 11 -10 18 1 8 -6 4 -17 -8 -23 -27 -33 -29 -29 -6 2 12
-5 17 -30 18 -32 1 -56 21 -46 36 2 4 0 10 -4 13 -5 3 -9 -7 -8 -22 1 -25 -2
-27 -37 -27 -42 0 -53 8 -40 28 4 6 8 19 8 27 0 8 8 15 17 15 9 0 20 4 25 9 4
5 3 7 -2 3 -13 -7 -42 9 -33 18 3 4 14 8 25 9 10 2 17 10 15 20 -2 9 1 16 6
16 16 0 21 -27 9 -41 -10 -11 -9 -11 4 -1 9 6 20 8 25 4 4 -4 3 0 -4 9 -6 8
-9 28 -6 45 3 21 2 25 -5 14 -10 -15 -55 -24 -45 -9 2 4 11 6 19 2 8 -3 15 -1
15 4 0 15 -68 12 -74 -4 -3 -8 -2 -12 3 -9 13 8 45 -20 37 -32 -11 -18 -26
-14 -20 6 4 13 2 12 -7 -3 -7 -11 -13 -27 -14 -35 0 -8 -8 -14 -17 -14 -10 1
-15 -3 -11 -9 3 -6 1 -7 -5 -3 -8 4 -10 2 -6 -7 8 -23 -17 -33 -32 -13 -9 13
-13 14 -17 4 -2 -7 -8 -10 -12 -5 -12 10 26 36 44 29 10 -4 12 -1 6 8 -5 9 -4
11 3 6 7 -4 13 -2 13 3 1 6 2 15 3 20 0 5 5 13 10 18 5 5 6 3 2 -4 -9 -16 10
-17 20 -1 4 6 -1 17 -11 25 -12 8 -14 13 -6 13 10 0 11 3 2 13 -8 10 -8 28 0
68 14 66 1 123 -38 170 -28 32 -113 79 -146 79 -29 0 -30 25 -3 64 14 21 28
46 31 56 4 12 20 20 50 25 106 15 262 84 372 162 l62 44 65 -88 c36 -48 83
-120 106 -159 l41 -72 -20 -38 c-26 -48 -27 -104 -3 -135 15 -20 18 -40 16
-114 -2 -71 1 -94 14 -108 15 -17 14 -17 -4 -11 -16 7 -15 3 6 -19 14 -14 25
-34 25 -44 0 -11 7 -18 20 -18 12 0 20 -7 20 -17 0 -25 35 -47 73 -48 19 0 32
-5 32 -12 0 -8 3 -9 8 -3 9 13 32 18 32 6 0 -12 48 -1 61 15 7 9 17 11 28 5
20 -11 50 -6 65 10 8 9 8 10 -3 4 -9 -5 -12 -4 -7 3 5 8 13 9 25 3 10 -6 23
-6 31 -1 17 11 33 3 24 -12 -4 -7 -2 -8 4 -4 9 5 8 14 -4 31 -9 14 -11 26 -5
29 5 4 13 1 17 -5 5 -8 3 -9 -7 -4 -8 5 -10 4 -6 0 4 -5 27 -10 50 -11 47 -2
91 -17 102 -34 5 -8 14 -6 32 5 14 10 23 13 20 8 -6 -10 17 -10 43 0 24 9 73
20 95 21 87 7 77 66 -13 72 -18 1 -36 5 -39 8 -4 3 -15 -2 -26 -11 -18 -17
-19 -17 -16 2 3 12 -2 20 -11 21 -8 0 -17 2 -20 4 -3 1 -27 3 -53 5 -44 2 -73
18 -62 35 2 3 45 30 96 60 153 91 259 232 259 344 0 52 -3 59 -67 151 -18 25
-33 48 -33 50 0 2 33 -11 73 -30 341 -158 965 -177 1387 -43 348 111 596 348
706 674 93 277 81 609 -30 874 l-35 82 457 -5 c490 -4 508 -6 604 -59 24 -13
49 -35 56 -50 27 -57 32 -205 30 -833 -3 -737 -2 -899 6 -920 5 -13 112 -15
865 -15 774 0 859 2 865 16 3 9 6 289 6 622 0 628 11 1023 31 1095 14 52 72
111 124 126 26 7 184 11 450 12 417 0 556 6 575 25 6 6 11 226 12 622 l3 612
-2087 0 c-2053 0 -2087 0 -2098 -19 -16 -31 -8 -586 15 -998 l6 -101 -73 75
c-96 99 -180 161 -308 227 -236 122 -473 170 -830 170 -309 -1 -510 -34 -718
-119 -224 -91 -412 -266 -519 -481 l-37 -76 -12 48 c-18 76 -30 100 -73 143
-37 37 -39 41 -30 78 14 61 11 111 -10 151 -50 97 -171 103 -261 13 l-46 -46
-22 26 -22 27 20 77 c20 79 37 109 102 184 120 139 165 357 113 546 -21 76
-28 131 -26 223 2 77 -6 100 -48 145 -48 52 -109 67 -181 46 -30 -9 -49 -8
-111 10 -96 28 -234 35 -318 16z m283 -31 c25 -15 -103 -25 -200 -17 -62 5
-78 3 -118 -17 -59 -30 -150 -111 -165 -147 -13 -31 -32 -48 -138 -128 -40
-30 -73 -49 -73 -42 0 21 73 138 118 188 67 75 192 145 307 173 36 9 249 0
269 -10z m158 -30 c-71 -50 -61 -155 21 -204 60 -37 142 -15 154 41 7 35 23
49 23 20 0 -63 -59 -108 -131 -98 -24 3 -48 13 -55 21 -6 9 -15 12 -19 8 -5
-4 -5 -1 -1 6 4 6 2 12 -4 12 -19 0 -50 64 -50 103 0 41 22 92 42 100 29 12
42 6 20 -9z m158 -28 c22 -27 -5 -17 -31 10 -21 24 -22 26 -3 16 11 -6 26 -18
34 -26z m-460 -4 c87 -64 93 -179 14 -241 -61 -48 -160 -31 -212 37 -53 70
-26 183 52 218 39 18 112 11 146 -14z m394 -23 c27 -21 35 -49 14 -49 -17 1
-68 46 -68 60 0 16 25 12 54 -11z m-642 -51 c-14 -45 -3 -108 26 -141 12 -14
13 -20 3 -30 -10 -9 -11 -9 -6 4 4 10 2 20 -3 23 -5 3 -9 -4 -8 -16 1 -16 8
-23 26 -23 14 -1 41 -9 60 -19 l35 -17 -40 5 c-56 6 -70 10 -91 26 -18 14 -18
14 -1 -6 9 -11 14 -25 10 -29 -5 -5 0 -3 10 4 15 12 17 12 11 -3 -3 -9 -1 -17
5 -17 6 -1 16 -3 21 -4 6 -1 31 -3 57 -4 61 -1 51 -10 -12 -11 -76 -1 -109 4
-135 23 -22 16 -23 18 -7 29 16 12 16 17 2 67 -9 29 -14 59 -11 66 2 7 0 17
-6 23 -6 6 2 20 24 41 18 17 34 31 35 31 1 0 -1 -10 -5 -22z m468 -19 c0 -44
69 -129 105 -129 8 0 17 -5 20 -11 9 -14 -65 18 -88 39 -11 9 -25 28 -32 42
-16 32 -26 92 -14 84 5 -3 9 -14 9 -25z m223 -13 c6 -16 -2 -28 -14 -20 -12 7
-11 34 0 34 5 0 11 -6 14 -14z m-756 -110 c12 -37 10 -56 -6 -56 -12 0 -31 47
-31 76 0 37 21 25 37 -20z m515 -12 c45 -50 100 -74 174 -74 46 0 68 5 86 20
l26 20 21 -58 c73 -197 31 -411 -114 -581 -57 -66 -84 -118 -91 -175 -9 -65
-14 -69 -73 -61 -45 6 -51 10 -51 31 0 13 -4 24 -10 24 -5 0 -10 -11 -10 -24
0 -22 -4 -23 -90 -29 -49 -4 -95 -8 -102 -9 -8 -2 -23 27 -39 77 -14 44 -25
81 -25 82 1 1 24 -5 51 -13 62 -19 235 -16 235 4 0 6 5 12 10 12 6 0 33 22 60
50 44 43 50 54 50 91 0 40 -1 41 -27 36 -16 -3 -39 -8 -51 -12 -24 -8 -24 -7
-17 51 9 73 -4 65 -19 -13 -11 -53 -14 -57 -46 -66 -79 -21 -245 7 -357 60
-38 18 -63 12 -63 -15 0 -37 74 -125 133 -158 14 -8 27 -37 43 -100 13 -49 21
-91 18 -93 -5 -5 -114 -41 -125 -41 -4 0 -16 27 -28 60 -22 60 -27 66 -168
195 -106 97 -173 225 -189 357 -6 53 -6 54 41 106 72 80 225 191 225 163 0 -5
21 -19 46 -31 39 -19 57 -22 137 -18 122 6 181 35 233 113 23 33 44 55 55 55
10 0 33 -16 51 -36z m-177 -61 c-19 -13 -31 -11 -21 5 3 5 13 9 22 9 15 0 15
-2 -1 -14z m-521 -21 c3 -5 -1 -9 -9 -9 -8 0 -12 4 -9 9 3 4 7 8 9 8 2 0 6 -4
9 -8z m342 -522 c7 0 4 -18 -6 -46 l-11 -27 -25 24 c-57 53 -55 88 3 64 19 -8
37 -15 39 -15z m444 -15 c0 -14 -13 -39 -30 -57 l-29 -33 -1 46 c0 38 4 48 23
57 33 16 37 14 37 -13z m-350 -11 c26 -6 27 -8 22 -52 -2 -26 -8 -51 -12 -55
-4 -5 -28 2 -54 14 -47 24 -53 36 -40 87 6 19 11 22 32 17 13 -3 37 -8 52 -11z
m280 -43 c0 -48 -1 -49 -40 -65 -65 -26 -70 -23 -70 38 l0 55 43 9 c68 16 67
16 67 -37z m-122 -28 l-3 -58 -58 1 c-32 1 -60 4 -63 7 -3 2 -2 28 2 56 l7 51
59 0 59 0 -3 -57z m1418 -158 l36 -15 -45 -43 c-25 -24 -48 -53 -51 -64 -6
-20 -8 -20 -51 -4 -25 9 -45 21 -45 27 0 23 47 80 80 96 42 21 33 21 76 3z
m-965 -70 c-19 -41 -45 -42 -49 -2 -3 21 2 29 20 36 38 14 47 4 29 -34z m-64
-11 c1 -39 -18 -54 -42 -34 -20 17 -19 47 3 59 29 18 38 12 39 -25z m1181 20
c32 -22 27 -36 -21 -59 -54 -26 -98 -88 -104 -149 -6 -48 -9 -51 -32 -37 -9 6
-10 11 -2 15 19 12 13 81 -9 101 -30 27 -24 53 24 101 36 37 50 44 82 44 22 0
50 -7 62 -16z m-2218 -1 c0 -10 -32 -43 -42 -43 -10 0 -11 34 -1 43 8 9 43 9
43 0z m1175 -13 c18 -19 17 -20 -2 -20 -11 0 -26 -7 -33 -15 -18 -22 -34 -3
-26 29 8 32 36 34 61 6z m-329 -21 c8 -6 14 -20 14 -30 0 -17 -5 -18 -47 -11
-46 7 -267 7 -308 0 -11 -2 -23 -7 -27 -13 -5 -7 -8 -7 -9 0 0 6 -2 18 -4 28
-3 18 4 22 90 37 66 12 273 4 291 -11z m141 -31 c16 -18 10 -38 -11 -38 -8 0
-19 7 -26 15 -11 13 -10 21 0 43 9 19 14 23 18 12 2 -8 11 -23 19 -32z m213 3
c17 -32 12 -38 -26 -32 -21 3 -36 9 -35 14 0 4 1 11 1 16 0 8 16 16 42 20 4 0
12 -8 18 -18z m-753 2 c-4 -3 -2 -12 4 -20 6 -7 8 -13 3 -14 -5 0 -17 -2 -26
-4 -10 -2 -18 -1 -18 3 0 7 31 42 38 42 3 0 2 -3 -1 -7z m-37 -9 c0 -8 -19
-13 -24 -6 -3 5 1 9 9 9 8 0 15 -2 15 -3z m696 -26 c10 -31 -4 -68 -26 -68
-10 0 -25 -6 -31 -13 -11 -11 -16 -10 -32 6 -16 16 -17 23 -6 48 12 31 55 60
76 52 7 -3 15 -14 19 -25z m1188 22 c105 -40 51 -289 -80 -366 -44 -26 -112
-32 -158 -14 -36 13 -32 4 7 -20 17 -11 47 -20 65 -20 39 0 41 -12 5 -40 -71
-56 -273 26 -261 104 2 13 9 19 18 17 8 -2 29 -6 45 -8 l30 -5 -35 22 c-105
66 -158 170 -130 254 21 64 80 83 158 51 55 -24 82 -53 82 -91 0 -59 -63 -72
-139 -27 l-46 27 16 -25 c24 -36 77 -61 120 -55 l36 6 -19 -40 c-11 -21 -18
-47 -16 -57 3 -12 11 -3 25 30 12 26 28 48 35 48 31 3 54 -4 71 -22 11 -12 31
-19 54 -19 30 0 43 8 80 47 40 44 56 72 33 58 -6 -3 -10 4 -10 17 0 17 -6 11
-21 -22 -21 -48 -53 -79 -81 -80 -9 0 -26 12 -38 28 -42 53 -3 153 75 192 46
23 46 23 79 10z m-1911 -18 c15 -16 15 -19 2 -19 -8 0 -13 3 -10 5 3 3 0 11
-6 19 -17 20 -5 16 14 -5z m-256 -9 c4 -11 0 -21 -12 -27 -10 -6 -31 -22 -46
-35 -36 -28 -58 -23 -52 13 10 52 95 89 110 49z m668 7 c3 -4 15 -5 28 -3 31
6 60 -23 54 -54 -2 -13 0 -26 4 -29 5 -3 9 -12 9 -20 0 -9 -11 -14 -36 -14
-19 0 -33 3 -31 8 3 4 -56 4 -131 0 -75 -4 -140 -4 -144 -2 -4 3 -8 0 -8 -7 0
-7 -3 -9 -7 -5 -5 4 1 14 12 23 19 15 19 15 -4 8 -16 -5 -21 -4 -17 4 10 15
46 14 46 -1 0 -6 6 -4 13 6 12 16 27 18 144 15 72 -2 126 -1 120 3 -7 4 -19 8
-27 8 -8 0 -27 7 -42 14 -16 8 -28 12 -28 8 0 -4 -40 -9 -88 -11 -109 -4 -166
-8 -169 -11 -12 -11 -47 -1 -49 13 -2 17 7 21 35 18 7 -2 10 2 7 7 -4 6 10 9
34 7 22 -2 40 1 40 5 0 15 226 24 235 10z m175 -44 c-15 -15 -44 6 -48 33 l-4
23 31 -23 c22 -16 28 -26 21 -33z m-614 22 c3 -4 -1 -5 -10 -4 -8 1 -18 5 -22
8 -3 4 1 5 10 4 8 -1 18 -5 22 -8z m828 6 c9 -3 16 -18 16 -32 0 -20 -3 -23
-12 -14 -7 7 -20 12 -30 12 -18 0 -25 20 -11 33 8 9 17 9 37 1z m-754 -30 c0
-8 -19 -13 -24 -6 -3 5 1 9 9 9 8 0 15 -2 15 -3z m-266 -12 c2 -4 -22 -21 -55
-38 -64 -34 -74 -32 -31 8 36 34 75 48 86 30z m195 1 c-3 -21 2 -25 14 -9 11
15 15 16 25 4 9 -11 7 -18 -8 -31 -11 -9 -20 -12 -20 -7 0 6 -5 10 -11 10 -5
0 -8 -4 -5 -8 3 -5 -1 -9 -8 -9 -15 0 -17 27 -3 45 11 14 18 16 16 5z m812
-13 c20 -11 26 -40 9 -40 -18 0 -60 32 -54 41 7 12 21 11 45 -1z m-226 -10
c-3 -5 -10 -10 -16 -10 -5 0 -9 5 -9 10 0 6 7 10 16 10 8 0 12 -4 9 -10z
m-466 -29 c8 -5 11 -17 7 -28 -4 -13 1 -26 16 -40 35 -31 43 -33 75 -24 27 8
32 6 42 -16 10 -21 9 -29 -6 -47 -12 -14 -17 -33 -15 -58 2 -29 9 -38 33 -48
16 -7 29 -18 29 -25 0 -30 -13 -45 -41 -45 -40 0 -84 -65 -70 -103 9 -22 6
-28 -15 -42 -24 -16 -26 -15 -45 6 -31 36 -105 15 -122 -34 -2 -6 -14 -7 -30
-3 -22 5 -27 12 -27 36 0 20 -8 35 -29 49 -16 12 -33 21 -38 21 -10 0 -4 68 7
75 4 2 13 -6 20 -19 21 -41 85 -69 142 -64 58 6 95 30 125 84 39 67 25 141
-36 199 -29 27 -38 30 -101 30 -79 0 -111 -17 -145 -78 l-21 -36 -12 32 c-11
28 -10 35 9 60 15 21 19 37 15 58 -5 25 -1 31 19 41 21 10 29 8 48 -9 30 -28
84 -20 99 13 11 25 41 31 67 15z m529 -11 c15 -24 58 -26 83 -4 22 20 39 11
39 -21 0 -19 -4 -23 -21 -20 -12 3 -18 1 -15 -3 4 -4 15 -7 24 -7 10 -1 27 -6
40 -14 19 -10 26 -10 38 0 13 10 17 10 25 -2 14 -22 11 -34 -16 -57 -15 -13
-23 -28 -19 -34 5 -8 10 -5 14 8 7 17 8 16 11 -6 2 -14 14 -29 27 -35 29 -13
28 -43 -3 -55 -33 -12 -43 -54 -20 -80 24 -26 4 -55 -26 -39 -29 15 -69 -15
-69 -52 0 -34 -24 -39 -40 -9 -13 24 -68 28 -76 5 -9 -22 -54 -20 -53 3 0 10
3 12 6 5 7 -18 23 -16 23 2 0 8 -7 15 -15 15 -8 0 -15 8 -15 18 0 10 -14 29
-31 41 -26 19 -35 21 -55 12 -28 -12 -31 -5 -8 20 22 24 6 83 -24 87 -29 4
-28 8 7 38 34 28 44 66 25 93 -12 16 -11 21 1 31 12 10 18 10 30 0 21 -17 65
12 65 44 0 40 27 49 48 16z m-68 -9 c0 -6 -4 -13 -10 -16 -5 -3 -10 1 -10 9 0
9 5 16 10 16 6 0 10 -4 10 -9z m230 -6 c0 -8 -4 -15 -10 -15 -5 0 -7 7 -4 15
4 8 8 15 10 15 2 0 4 -7 4 -15z m30 -25 c0 -5 -5 -10 -11 -10 -5 0 -7 5 -4 10
3 6 8 10 11 10 2 0 4 -4 4 -10z m-1060 -55 c30 -29 59 -80 66 -119 15 -82 8
-144 -15 -138 -7 1 -10 -2 -6 -8 3 -6 10 -8 15 -5 4 3 6 -4 3 -15 -3 -11 -9
-20 -13 -20 -4 0 -7 -8 -6 -17 0 -11 -6 -18 -16 -18 -9 0 -20 -4 -25 -9 -4 -5
-3 -6 4 -2 26 14 2 -21 -29 -44 -17 -12 -28 -18 -24 -11 4 6 3 11 -1 11 -5 0
-9 9 -10 20 -2 25 6 25 23 3 12 -15 13 -16 8 -2 -3 10 0 20 5 24 6 3 8 11 4
18 -4 6 -7 24 -8 41 -1 26 -5 30 -33 31 -25 1 -29 -1 -20 -12 6 -7 9 -16 6
-18 -3 -3 -10 0 -16 8 -13 16 9 92 23 80 5 -5 3 0 -4 9 -7 9 -10 22 -7 27 4 5
1 13 -5 16 -5 4 -8 13 -5 21 3 8 2 13 -2 12 -4 -1 -17 3 -29 10 -12 7 -40 13
-62 14 -23 1 -41 4 -41 8 0 19 35 72 63 96 27 22 38 25 80 21 35 -3 56 -12 77
-32z m250 -20 c0 -2 -9 -3 -19 -2 -11 0 -18 5 -15 9 4 6 34 0 34 -7z m460 -6
c0 -5 -4 -9 -10 -9 -5 0 -10 7 -10 16 0 8 5 12 10 9 6 -3 10 -10 10 -16z m455
-101 c4 -52 -8 -124 -21 -121 -5 1 -10 -10 -11 -24 0 -14 -12 -37 -26 -51 -23
-23 -28 -24 -44 -11 -16 13 -17 12 -5 -2 10 -14 10 -18 -2 -22 -10 -4 -12 -17
-9 -51 3 -27 2 -46 -4 -46 -15 0 -25 142 -11 155 7 7 9 6 5 -1 -4 -7 3 -11 18
-11 44 0 78 60 47 83 -21 15 -7 51 23 58 21 5 25 13 25 41 0 28 -5 38 -25 47
-28 12 -31 28 -13 61 11 21 12 20 30 -20 10 -24 20 -62 23 -85z m-859 17 c19
-29 11 -60 -20 -81 -56 -36 -114 38 -69 88 24 26 69 23 89 -7z m344 9 c0 -8
-4 -12 -10 -9 -5 3 -10 10 -10 16 0 5 5 9 10 9 6 0 10 -7 10 -16z m44 -69 c3
-8 1 -15 -3 -15 -5 0 -11 7 -15 15 -3 8 -1 15 3 15 5 0 11 -7 15 -15z m2026
-14 c191 -64 300 -221 300 -430 0 -319 -203 -485 -570 -468 -138 7 -223 31
-300 84 -61 43 -120 124 -146 198 -21 63 -30 235 -15 305 37 171 153 284 333
325 95 22 313 14 398 -14z m-4055 -27 c191 -49 316 -214 315 -417 -1 -175 -94
-353 -219 -416 -195 -100 -490 -46 -591 107 -85 128 -103 367 -39 499 86 179
328 281 534 227z m1985 -29 c12 -32 53 -49 80 -33 28 18 53 -5 38 -37 -9 -19
-7 -30 6 -50 9 -14 23 -25 31 -25 23 0 19 -47 -5 -53 -28 -7 -41 -47 -25 -73
12 -19 12 -24 -5 -39 -12 -11 -20 -13 -25 -6 -8 15 -48 14 -63 -1 -7 -7 -12
-20 -12 -30 0 -26 -50 -25 -57 1 -7 27 -49 44 -74 30 -30 -16 -49 4 -42 45 5
34 -15 66 -43 66 -8 0 -14 10 -14 24 0 17 7 26 24 30 27 7 40 41 25 68 -17 32
-4 51 30 43 38 -8 67 7 75 40 9 34 43 34 56 0z m-725 -74 c-2 -4 6 -8 18 -8
16 -2 18 0 8 7 -20 12 -21 46 -2 46 10 0 16 -10 17 -26 1 -14 3 -32 5 -40 3
-9 -2 -14 -11 -11 -8 2 -24 4 -35 5 -12 0 -20 8 -20 18 0 10 -6 23 -12 29 -10
10 -11 6 -7 -14 4 -26 -4 -33 -30 -28 -5 1 -3 -6 4 -16 22 -28 24 -29 17 -10
-5 13 -3 17 5 14 7 -2 13 -11 13 -20 0 -17 2 -18 28 -16 10 0 10 2 0 6 -7 2
-13 8 -13 13 0 4 6 10 13 13 8 3 12 -7 13 -29 1 -19 -3 -34 -8 -34 -5 0 -6 5
-3 10 3 6 1 10 -4 10 -6 0 -11 -6 -12 -12 0 -10 -2 -10 -6 0 -2 6 -10 9 -15 6
-7 -5 -8 -2 -4 5 6 8 2 11 -10 9 -14 -2 -18 2 -16 15 2 12 -2 17 -14 15 -18
-3 -62 47 -51 59 4 4 13 1 20 -7 10 -10 9 -11 -3 -5 -8 5 -12 5 -8 1 10 -11
23 -8 23 7 0 6 7 12 15 12 8 0 15 -5 15 -12 0 -6 3 -14 7 -18 3 -4 5 1 4 11
-2 10 2 24 8 30 8 9 16 7 33 -8 12 -12 21 -24 18 -27z m141 -59 c-17 -16 -18
-16 -5 5 7 12 15 20 18 17 3 -2 -3 -12 -13 -22z m1054 -74 c0 -39 -5 -44 -30
-28 -14 9 -16 72 -3 93 10 16 32 -29 33 -65z m-1267 26 c32 -16 35 -20 40 -78
6 -59 5 -62 -28 -94 l-34 -33 -9 33 c-12 42 -5 54 19 32 18 -16 19 -16 19 2 0
30 -14 45 -40 42 -21 -3 -26 3 -33 39 -16 72 2 88 66 57z m1101 10 c9 -3 16
-15 16 -25 0 -17 -3 -18 -21 -9 -15 9 -24 8 -34 0 -21 -17 -30 -79 -17 -113 8
-21 8 -27 -1 -24 -15 5 -28 73 -20 112 11 61 32 76 77 59z m-897 -66 c-3 -7
-5 -2 -5 12 0 14 2 19 5 13 2 -7 2 -19 0 -25z m888 5 c-15 -36 -17 -64 -5 -78
12 -14 6 -35 -9 -35 -13 0 -23 67 -16 101 4 17 13 29 22 29 11 0 13 -5 8 -17z
m26 -40 c-4 -28 -6 -32 -9 -15 -3 22 3 52 11 52 1 0 1 -17 -2 -37z m67 30
c-32 -67 -41 -76 -51 -50 -8 22 12 57 34 57 11 0 19 -3 17 -7z m57 -27 c18
-13 18 -14 -3 -20 -12 -4 -27 -16 -33 -27 -8 -16 -13 -18 -24 -9 -14 11 -11
34 8 58 12 16 29 15 52 -2z m37 -53 c24 -21 23 -33 -3 -33 -11 0 -29 -5 -40
-10 -27 -15 -37 14 -14 40 22 24 33 25 57 3z m-278 -41 c57 -42 96 -109 96
-161 0 -53 -28 -117 -57 -130 -35 -16 -38 -9 -14 38 23 44 28 119 10 154 -6
12 -33 43 -61 68 -29 27 -48 51 -44 58 11 17 17 14 70 -27z m-882 -27 c7 -33
-8 -54 -17 -25 -4 12 -21 27 -37 34 l-30 13 23 16 c21 15 25 15 40 1 9 -8 19
-26 21 -39z m608 36 c0 -5 -22 -31 -49 -58 -87 -88 -90 -203 -6 -275 20 -17
20 -17 -3 -18 -38 0 -62 19 -83 63 -40 90 -8 209 74 268 40 29 67 37 67 20z
m470 -46 c0 -12 -20 -35 -30 -35 -3 0 -4 19 -2 42 4 38 6 40 18 23 8 -10 14
-24 14 -30z m-760 18 c-1 -5 -14 -24 -30 -43 l-30 -34 0 26 c0 15 7 34 16 42
16 16 44 22 44 9z m874 -9 c3 -8 3 -26 0 -40 l-6 -24 -25 20 c-14 11 -32 20
-39 20 -17 0 -18 27 -1 33 27 11 65 6 71 -9z m-1238 -17 c20 -18 25 -28 19
-46 -5 -16 -11 -20 -23 -15 -10 4 -32 8 -49 8 -37 1 -39 5 -18 46 19 36 35 38
71 7z m414 -21 c0 -23 -35 -58 -53 -55 -15 4 -14 8 8 42 25 36 45 41 45 13z
m781 -16 c23 -13 24 -37 2 -62 -15 -17 -17 -17 -40 16 -12 19 -23 40 -23 45 0
14 36 14 61 1z m-279 -37 c36 -41 34 -104 -3 -124 -27 -14 -36 -5 -15 16 32
32 11 105 -30 105 -8 0 -14 5 -14 10 0 17 46 11 62 -7z m219 -5 c24 -30 24
-55 -1 -63 -29 -9 -40 2 -40 39 0 51 12 58 41 24z m-1151 2 c24 -13 15 -50
-13 -50 -11 0 -31 -10 -44 -22 l-23 -21 0 45 c0 28 5 48 13 51 20 9 47 8 67
-3z m843 -2 c36 -27 39 -110 5 -132 -24 -14 -34 0 -14 19 28 28 11 95 -24 95
-11 0 -20 7 -20 15 0 18 30 20 53 3z m249 -33 c2 -16 -1 -32 -7 -35 -6 -3 -11
14 -13 40 -4 50 14 46 20 -5z m-421 22 c37 -28 53 -109 27 -135 -18 -18 -46
-14 -58 7 -13 25 -13 78 0 86 6 4 10 -12 10 -40 0 -54 23 -59 28 -7 4 43 -13
72 -43 72 -26 0 -34 15 -12 23 20 9 31 7 48 -6z m99 -9 c25 -27 28 -99 4 -122
-18 -18 -30 -20 -39 -6 -3 6 -1 10 5 10 15 0 32 50 25 77 -3 13 -17 29 -30 35
-14 6 -25 15 -25 20 0 16 40 7 60 -14z m-624 -28 c31 0 28 -19 -7 -39 -46 -25
-111 12 -95 54 4 12 10 12 40 0 20 -8 47 -15 62 -15z m141 -12 c23 -22 33 -88
13 -88 -5 0 -10 9 -10 21 0 11 -13 33 -29 49 -42 42 -18 59 26 18z m-1003 -11
c9 -36 64 -61 119 -55 56 7 77 22 77 55 0 33 29 27 50 -10 13 -24 13 -30 0
-54 -9 -16 -30 -35 -48 -45 -46 -22 -50 -28 -20 -28 14 0 42 12 63 26 l38 25
36 -29 c75 -60 100 -130 65 -180 -21 -31 -54 -29 -54 2 0 43 -17 37 -23 -7 -3
-23 -9 -53 -13 -66 -6 -19 -4 -22 6 -16 10 6 12 4 7 -9 -4 -10 -3 -15 3 -11 6
3 10 17 10 31 0 27 24 33 34 8 11 -29 6 -89 -10 -112 -23 -33 -70 -54 -105
-47 -17 4 -46 20 -65 37 -36 32 -44 27 -19 -9 14 -20 14 -23 -4 -33 -51 -27
-112 -3 -153 60 -18 28 -28 36 -25 23 8 -34 -26 -30 -57 7 -63 75 -59 232 7
314 23 28 25 29 48 13 43 -31 54 -18 16 17 -40 37 -47 68 -20 98 21 24 30 23
37 -5z m1326 19 c0 -3 -4 -8 -10 -11 -5 -3 -10 -1 -10 4 0 6 5 11 10 11 6 0
10 -2 10 -4z m634 -170 c54 -234 188 -439 388 -596 4 -3 -28 -5 -70 -6 -124 0
-215 -56 -288 -175 -29 -46 -40 -57 -50 -48 -7 6 -32 12 -54 13 -40 2 -42 4
-86 82 -67 116 -177 257 -279 356 -49 48 -85 88 -78 88 6 0 44 -31 84 -70 66
-64 73 -68 85 -52 29 38 74 131 98 204 14 42 37 98 51 126 14 27 25 57 25 65
0 8 7 20 15 27 17 14 20 66 5 75 -19 12 9 45 38 45 15 1 38 7 52 15 29 16 21
33 64 -149z m-1221 140 c3 -8 -3 -22 -13 -31 -10 -9 -22 -31 -26 -48 l-6 -31
-24 28 c-29 33 -30 50 -4 76 23 23 65 27 73 6z m220 -4 c9 -10 20 -32 23 -49
5 -28 2 -33 -24 -47 -17 -9 -33 -16 -35 -16 -2 0 -12 18 -22 40 -18 40 -18 40
5 65 28 30 32 30 53 7z m-171 -75 c-2 -19 1 -44 8 -56 10 -20 9 -21 -17 -15
-49 12 -63 23 -63 52 0 38 35 75 59 63 13 -7 16 -19 13 -44z m88 26 c0 -10 7
-31 15 -47 18 -35 8 -46 -42 -46 -26 0 -34 5 -39 24 -10 42 -1 70 26 77 38 11
40 10 40 -8z m340 -27 c0 -18 -17 -29 -30 -21 -8 5 -7 11 1 21 15 18 29 18 29
0z m560 -31 c-30 -36 -194 -70 -389 -81 -104 -6 -123 -5 -116 7 8 12 6 12 -8
0 -14 -11 -20 -11 -34 0 -12 10 -15 10 -9 1 14 -24 -226 -1 -255 24 -9 8 -19
11 -24 7 -4 -5 -5 -3 -1 4 3 6 15 11 26 10 10 -1 16 -6 12 -12 -3 -5 1 -4 10
2 8 7 17 10 21 7 15 -16 258 -23 407 -13 160 12 243 26 309 52 56 23 74 20 51
-8z m-605 -5 c3 -5 -1 -10 -9 -10 -9 0 -16 5 -16 10 0 6 4 10 9 10 6 0 13 -4
16 -10z m556 -81 c-2 -8 -4 -19 -4 -26 0 -7 -4 -10 -9 -7 -4 3 -8 -2 -8 -10 0
-20 -49 -76 -67 -76 -7 0 -13 -4 -13 -10 0 -5 -10 -10 -22 -10 -21 0 -20 2 10
29 19 18 30 36 26 44 -3 8 -1 18 5 21 6 4 7 14 4 22 -5 13 -7 13 -14 2 -8 -11
-10 -11 -18 1 -7 11 -9 11 -13 0 -3 -8 -9 -10 -14 -6 -13 13 13 24 51 22 19
-1 35 2 35 7 0 5 5 6 10 3 6 -3 10 -2 10 4 0 5 8 8 18 6 9 -1 15 -9 13 -16z
m-184 -28 c0 -11 -5 -18 -9 -15 -4 3 -5 11 -1 19 7 21 12 19 10 -4z m73 -7
c16 2 27 0 25 -5 -6 -9 -81 -6 -77 4 1 4 2 13 2 20 0 7 5 4 11 -5 6 -12 19
-16 39 -14z m-290 -29 c0 -2 -6 -8 -13 -14 -10 -8 -14 -7 -14 2 0 8 6 14 14
14 7 0 13 -1 13 -2z m305 -13 c-3 -3 -11 0 -18 7 -9 10 -8 11 6 5 10 -3 15 -9
12 -12z m-155 -8 c0 -8 -19 -13 -24 -6 -3 5 1 9 9 9 8 0 15 -2 15 -3z m-833
-431 c0 -9 -4 -10 -14 -2 -7 6 -13 12 -13 14 0 1 6 2 13 2 8 0 14 -6 14 -14z
m37 -4 c-3 -5 -10 -7 -15 -3 -5 3 -7 10 -3 15 3 5 10 7 15 3 5 -3 7 -10 3 -15z
m-40 -27 c3 -5 -1 -9 -9 -9 -8 0 -12 4 -9 9 3 4 7 8 9 8 2 0 6 -4 9 -8z m80 0
c3 -5 -1 -9 -9 -9 -8 0 -12 4 -9 9 3 4 7 8 9 8 2 0 6 -4 9 -8z m-237 -47 c0
-8 -4 -12 -9 -9 -5 3 -6 10 -3 15 9 13 12 11 12 -6z m113 -10 c-7 -8 -9 -19
-6 -24 4 -5 2 -12 -2 -15 -5 -3 -8 9 -7 27 3 40 3 39 15 32 8 -5 7 -11 0 -20z
m177 12 c0 -8 -6 -14 -14 -14 -9 0 -10 4 -2 14 6 7 12 13 14 13 1 0 2 -6 2
-13z m1485 4 c10 6 18 6 18 0 0 -15 29 -21 42 -8 21 19 37 18 35 -2 -1 -14 -7
-18 -25 -15 -14 3 -21 1 -17 -6 3 -5 -5 -21 -19 -35 -32 -32 -33 -39 -3 -24
12 6 19 8 15 4 -4 -5 -2 -15 4 -24 10 -13 10 -14 -2 -3 -20 17 -35 15 -20 -3
7 -8 8 -15 3 -15 -5 0 -16 11 -23 25 -7 13 -18 21 -24 18 -5 -4 -22 -8 -35 -9
-36 -4 -71 -25 -64 -38 3 -6 -4 -1 -17 10 -18 17 -20 25 -11 41 7 14 7 23 0
30 -7 7 -3 9 13 6 15 -3 29 2 37 11 8 9 19 16 26 16 7 0 16 8 19 17 5 12 10
13 18 5 8 -8 17 -8 30 -1z m138 -16 c0 -2 -6 -8 -13 -14 -10 -8 -14 -7 -14 2
0 8 6 14 14 14 7 0 13 -1 13 -2z m-1836 -36 c-3 -5 -10 -7 -15 -3 -5 3 -7 10
-3 15 3 5 10 7 15 3 5 -3 7 -10 3 -15z m81 -14 c-2 -22 1 -24 23 -20 13 2 21
1 17 -3 -6 -7 -10 -8 -35 -11 -6 0 -10 -7 -8 -14 2 -7 -1 -15 -6 -17 -5 -3
-10 9 -11 27 -1 18 2 30 7 27 4 -3 8 -1 8 5 0 5 -5 13 -10 16 -6 4 -8 11 -4
16 10 16 22 0 19 -26z m153 19 c4 3 8 -8 8 -24 0 -16 -3 -27 -7 -24 -5 2 -6
11 -2 19 3 8 0 16 -6 16 -6 1 -15 3 -21 4 -5 1 -13 3 -16 4 -3 0 -2 6 1 11 5
8 11 7 20 0 8 -7 18 -9 23 -6z m-114 -2 c3 -5 -1 -9 -9 -9 -8 0 -12 4 -9 9 3
4 7 8 9 8 2 0 6 -4 9 -8z m-87 -37 c0 -8 -4 -12 -9 -9 -5 3 -6 10 -3 15 9 13
12 11 12 -6z m122 2 c8 -10 7 -14 -2 -14 -8 0 -14 6 -14 14 0 7 1 13 2 13 2 0
8 -6 14 -13z m56 -27 c2 -27 -14 -11 -20 20 -3 18 -2 21 7 12 6 -6 12 -21 13
-32z m-317 -21 c-11 -7 -11 -9 1 -9 10 0 11 -3 2 -14 -8 -9 -8 -15 -1 -18 5
-1 12 -12 14 -24 3 -16 -1 -20 -17 -19 -23 2 -30 29 -13 53 5 7 4 17 -3 25
-13 17 -5 28 16 20 12 -5 12 -7 1 -14z m106 0 c-3 -5 -10 -7 -15 -3 -5 3 -7
10 -3 15 3 5 10 7 15 3 5 -3 7 -10 3 -15z m46 16 c0 -2 -6 -8 -13 -14 -10 -8
-14 -7 -14 2 0 8 6 14 14 14 7 0 13 -1 13 -2z m65 -4 c3 -5 2 -12 -3 -15 -5
-3 -9 1 -9 9 0 17 3 19 12 6z m1560 0 c3 -5 2 -12 -3 -15 -5 -3 -9 1 -9 9 0
17 3 19 12 6z m-1710 -43 c-5 -27 -4 -29 9 -18 9 7 14 16 11 19 -2 4 2 8 9 8
7 0 12 -12 12 -27 0 -22 -4 -26 -26 -26 -24 0 -26 3 -26 42 1 23 4 40 9 37 4
-2 5 -18 2 -35z m1552 27 c0 -8 -7 -15 -15 -15 -12 0 -12 3 -2 15 7 8 13 15
15 15 1 0 2 -7 2 -15z m313 -1 c0 -8 -19 -13 -24 -6 -3 5 1 9 9 9 8 0 15 -2
15 -3z m-1549 -21 c13 -16 12 -17 -3 -4 -10 7 -18 15 -18 17 0 8 8 3 21 -13z
m1202 -30 c-5 -12 -3 -14 8 -8 8 5 11 4 6 0 -4 -5 -14 -10 -22 -11 -11 -2 -12
2 -5 15 6 12 5 22 -3 31 -10 12 -9 12 5 1 10 -7 14 -19 11 -28z m292 28 c3 -5
2 -12 -3 -15 -5 -3 -9 1 -9 9 0 17 3 19 12 6z m-245 -7 c0 -8 -19 -13 -24 -6
-3 5 1 9 9 9 8 0 15 -2 15 -3z m63 -19 c-3 -9 -8 -14 -10 -11 -3 3 -2 9 2 15
9 16 15 13 8 -4z m-1543 -11 c0 -8 -19 -13 -24 -6 -3 5 1 9 9 9 8 0 15 -2 15
-3z m1322 -22 c7 -7 8 -12 3 -13 -56 -5 -73 -4 -69 3 3 5 10 5 16 2 7 -5 9 -1
5 9 -5 13 -1 16 13 14 11 -2 26 -9 32 -15z m70 -14 c-8 -8 -8 -17 -1 -32 10
-20 9 -20 -5 -2 -11 13 -12 24 -6 36 5 10 8 20 6 22 -1 3 2 2 8 -3 7 -6 6 -13
-2 -21z m-1468 4 c3 -5 -1 -9 -9 -9 -8 0 -12 4 -9 9 3 4 7 8 9 8 2 0 6 -4 9
-8z m31 -1 c3 -5 2 -12 -3 -15 -5 -3 -9 1 -9 9 0 17 3 19 12 6z m45 3 c0 -8
-19 -13 -24 -6 -3 5 1 9 9 9 8 0 15 -2 15 -3z m1450 2 c0 -2 -6 -9 -14 -15
-11 -9 -16 -9 -22 0 -4 7 -3 9 4 5 6 -3 13 -2 17 4 6 10 15 14 15 6z m100 -36
c-6 -10 -16 -22 -23 -26 -9 -6 -9 -4 1 8 7 9 12 20 11 24 -3 18 1 25 11 19 7
-4 7 -12 0 -25z m-397 5 c-3 -9 -8 -14 -10 -11 -3 3 -2 9 2 15 9 16 15 13 8
-4z m177 11 c0 -2 -8 -10 -17 -17 -16 -13 -17 -12 -4 4 13 16 21 21 21 13z
m310 -2 c0 -8 -19 -13 -24 -6 -3 5 1 9 9 9 8 0 15 -2 15 -3z m-1524 -20 c12 3
21 -1 21 -9 0 -8 -9 -11 -25 -9 -21 4 -23 3 -13 -9 9 -12 8 -16 -5 -21 -9 -3
-14 -13 -10 -21 8 -23 -9 -26 -27 -4 -10 11 -21 18 -26 15 -4 -3 -8 1 -8 8 0
7 6 13 13 13 7 0 11 -4 8 -9 -8 -12 10 -10 24 4 14 14 16 32 4 24 -5 -3 -9 1
-9 9 0 8 4 12 9 9 4 -3 8 1 8 8 0 10 2 10 8 1 4 -7 17 -11 28 -9z m85 -1 c13
-16 12 -17 -3 -4 -10 7 -18 15 -18 17 0 8 8 3 21 -13z m-157 -14 c-3 -5 -10
-7 -15 -3 -5 3 -7 10 -3 15 3 5 10 7 15 3 5 -3 7 -10 3 -15z m1141 12 c3 -5 2
-12 -3 -15 -5 -3 -9 1 -9 9 0 17 3 19 12 6z m49 -12 c-3 -5 -10 -7 -15 -3 -5
3 -7 10 -3 15 3 5 10 7 15 3 5 -3 7 -10 3 -15z m-1230 3 c3 -5 -1 -9 -9 -9 -8
0 -12 4 -9 9 3 4 7 8 9 8 2 0 6 -4 9 -8z m1588 -27 c-15 -16 -28 -32 -30 -35
-5 -8 6 49 12 58 2 4 14 8 25 8 19 0 19 -2 -7 -31z m-1588 -3 c3 -5 -1 -9 -9
-9 -8 0 -12 4 -9 9 3 4 7 8 9 8 2 0 6 -4 9 -8z m1101 -11 c3 -5 2 -12 -3 -15
-5 -3 -9 1 -9 9 0 17 3 19 12 6z m42 -6 c0 -8 -4 -12 -9 -9 -5 3 -6 10 -3 15
9 13 12 11 12 -6z m-967 1 c0 -2 -7 -7 -16 -10 -8 -3 -12 -2 -9 4 6 10 25 14
25 6z m-50 -10 c0 -2 -8 -10 -17 -17 -16 -13 -17 -12 -4 4 13 16 21 21 21 13z
m160 0 c0 -2 -8 -10 -17 -17 -16 -13 -17 -12 -4 4 13 16 21 21 21 13z m-413
-21 c0 -8 -4 -12 -9 -9 -5 3 -6 10 -3 15 9 13 12 11 12 -6z m168 3 c4 -3 2 -9
-3 -12 -5 -3 -15 1 -21 8 -10 11 -9 14 3 12 9 -1 18 -5 21 -8z m1220 -23 c-1
-15 4 -29 14 -35 15 -9 4 -9 -38 -1 -2 1 2 8 9 16 9 11 10 18 1 28 -6 8 -8 17
-5 20 12 12 22 -3 19 -28z m50 15 c-3 -4 2 -13 9 -19 17 -14 31 2 20 22 -5 9
-4 9 6 0 10 -9 10 -15 2 -26 -7 -8 -11 -16 -9 -18 1 -2 -2 -1 -7 3 -17 14 -24
9 -19 -12 3 -11 9 -18 13 -15 15 9 20 -12 7 -23 -8 -7 -18 -7 -27 -2 -10 6
-11 10 -3 10 9 0 10 7 4 23 -5 12 -14 21 -21 19 -6 -1 -9 2 -5 8 3 6 11 8 16
5 5 -4 9 -2 9 4 0 5 -5 13 -10 16 -6 4 -8 11 -4 16 3 5 10 7 15 3 5 -3 7 -9 4
-14z m72 5 c0 -8 -4 -12 -9 -9 -5 3 -6 10 -3 15 9 13 12 11 12 -6z m-277 -1
c0 -8 -19 -13 -24 -6 -3 5 1 9 9 9 8 0 15 -2 15 -3z m76 -9 c-1 -8 -5 -17 -8
-21 -5 -4 -4 16 1 34 3 9 9 -1 7 -13z m43 1 c11 -14 6 -15 -27 -7 -4 1 8 21
12 21 2 0 9 -6 15 -14z m-840 -17 c19 -7 32 -18 33 -30 0 -10 1 -25 2 -31 1
-7 -15 -18 -34 -24 -28 -9 -39 -9 -59 5 -14 9 -22 11 -19 5 4 -6 1 -11 -7 -11
-8 0 -12 4 -9 9 3 5 -1 17 -9 26 -17 21 -30 55 -18 47 5 -3 12 -1 16 5 8 13
64 13 104 -1z m-389 -5 c0 -8 -19 -13 -24 -6 -3 5 1 9 9 9 8 0 15 -2 15 -3z
m34 -2 c3 -5 -1 -9 -9 -9 -8 0 -12 4 -9 9 3 4 7 8 9 8 2 0 6 -4 9 -8z m1188
-16 c-5 -6 -7 -20 -7 -32 1 -11 -4 -21 -11 -21 -10 0 -11 4 -3 13 11 14 4 34
-12 34 -6 0 -8 -4 -5 -8 3 -5 -1 -9 -8 -9 -7 0 -13 6 -13 13 0 7 3 11 7 9 3
-2 12 0 18 4 19 12 43 9 34 -3z m168 8 c0 -8 -19 -13 -24 -6 -3 5 1 9 9 9 8 0
15 -2 15 -3z m-1395 -36 c3 -3 -8 -5 -24 -4 -16 1 -32 4 -35 7 -3 3 8 5 24 4
16 -1 32 -4 35 -7z m1289 -7 c3 -4 -4 -7 -14 -6 -27 2 -33 10 -10 12 11 1 22
-2 24 -6z m100 1 c3 -5 -1 -9 -9 -9 -8 0 -12 4 -9 9 3 4 7 8 9 8 2 0 6 -4 9
-8z m116 4 c0 -2 -8 -10 -17 -17 -16 -13 -17 -12 -4 4 13 16 21 21 21 13z
m-350 -11 c0 -2 -6 -8 -13 -14 -10 -8 -14 -7 -14 2 0 8 6 14 14 14 7 0 13 -1
13 -2z m-1255 -23 c-3 -3 -11 0 -18 7 -9 10 -8 11 6 5 10 -3 15 -9 12 -12z
m99 10 c3 -5 -1 -9 -9 -9 -8 0 -12 4 -9 9 3 4 7 8 9 8 2 0 6 -4 9 -8z m1293
-27 c0 -8 -4 -12 -9 -9 -5 3 -6 10 -3 15 9 13 12 11 12 -6z m50 0 c0 -6 -6
-12 -12 -12 -6 0 -12 6 -12 12 0 6 6 12 12 12 6 0 12 -6 12 -12z m47 -2 c-9
-7 -21 -10 -26 -7 -14 9 -1 20 22 20 20 0 20 -1 4 -13z m71 -4 c-4 -5 -12 -9
-18 -8 -9 0 -8 2 1 6 6 2 9 10 6 15 -4 7 -2 8 5 4 6 -4 9 -12 6 -17z m-318 -6
c0 -9 -4 -10 -14 -2 -7 6 -13 12 -13 14 0 1 6 2 13 2 8 0 14 -6 14 -14z m37
-4 c-3 -5 -10 -7 -15 -3 -5 3 -7 10 -3 15 3 5 10 7 15 3 5 -3 7 -10 3 -15z
m80 13 c3 -5 -1 -9 -9 -9 -8 0 -12 4 -9 9 3 4 7 8 9 8 2 0 6 -4 9 -8z m-1140
-23 c-3 -5 -10 -7 -15 -3 -5 3 -7 10 -3 15 3 5 10 7 15 3 5 -3 7 -10 3 -15z
m286 15 c0 -8 -19 -13 -24 -6 -3 5 1 9 9 9 8 0 15 -2 15 -3z m34 -15 c-3 -5
-10 -7 -15 -3 -5 3 -7 10 -3 15 3 5 10 7 15 3 5 -3 7 -10 3 -15z m36 8 c0 -2
-11 -14 -24 -26 -18 -17 -26 -19 -31 -10 -5 7 -4 10 2 6 6 -4 18 2 28 13 17
19 25 24 25 17z m688 -32 c1 -5 -7 -9 -18 -8 -30 1 -32 2 -26 11 7 11 40 9 44
-3z m49 2 c0 -8 -6 -14 -14 -14 -9 0 -10 4 -2 14 6 7 12 13 14 13 1 0 2 -6 2
-13z m-717 -12 c0 -2 -9 -3 -19 -2 -11 0 -18 5 -15 9 4 6 34 0 34 -7z m634
-36 c-3 -5 -10 -7 -15 -3 -5 3 -7 10 -3 15 3 5 10 7 15 3 5 -3 7 -10 3 -15z
m43 4 c0 -9 -4 -10 -14 -2 -7 6 -13 12 -13 14 0 1 6 2 13 2 8 0 14 -6 14 -14z
m80 0 c0 -9 -4 -10 -14 -2 -9 9 -17 8 -27 0 -13 -11 -32 -1 -21 11 11 10 62 3
62 -9z m-1016 -10 c13 -16 12 -17 -3 -4 -10 7 -18 15 -18 17 0 8 8 3 21 -13z
m123 -4 c-3 -5 -10 -7 -15 -3 -5 3 -7 10 -3 15 3 5 10 7 15 3 5 -3 7 -10 3
-15z m810 -30 c-3 -5 -10 -7 -15 -3 -5 3 -7 10 -3 15 3 5 10 7 15 3 5 -3 7
-10 3 -15z m-930 3 c3 -5 -1 -9 -9 -9 -8 0 -12 4 -9 9 3 4 7 8 9 8 2 0 6 -4 9
-8z m80 0 c3 -5 -1 -9 -9 -9 -8 0 -12 4 -9 9 3 4 7 8 9 8 2 0 6 -4 9 -8z m83
-7 c5 -4 3 -5 -4 -2 -6 4 -14 1 -17 -5 -5 -10 -7 -10 -12 0 -5 10 -11 9 -27
-5 -15 -12 -18 -13 -9 -2 6 9 10 18 7 21 -3 2 9 4 25 3 16 -1 33 -5 37 -10z
m923 0 c0 -2 -9 -3 -19 -2 -11 0 -18 5 -15 9 4 6 34 0 34 -7z m-297 -20 c9 -4
17 -12 17 -17 0 -6 -8 -4 -17 3 -15 12 -16 12 -11 -2 4 -9 2 -21 -4 -27 -8 -8
-7 -16 3 -29 13 -16 12 -17 -3 -5 -9 8 -21 11 -26 8 -5 -3 -8 5 -7 17 1 12 -1
29 -6 38 -5 9 -6 18 -4 21 6 6 35 3 58 -7z m-938 -19 c7 3 15 2 18 -3 3 -4 -7
-8 -22 -8 -17 -1 -28 5 -28 12 0 9 4 10 10 4 5 -5 15 -7 22 -5z m355 -2 c0 -8
-19 -13 -24 -6 -3 5 1 9 9 9 8 0 15 -2 15 -3z m-292 -29 c-3 -3 -9 2 -12 12
-6 14 -5 15 5 6 7 -7 10 -15 7 -18z m251 4 c-16 -10 -23 -4 -14 10 3 6 11 8
17 5 6 -4 5 -9 -3 -15z m1273 2 c-4 -13 -1 -12 15 2 15 13 23 15 28 7 4 -6 13
-9 21 -6 8 3 11 0 8 -8 -9 -23 18 -31 33 -11 7 11 13 13 13 6 0 -7 5 -9 12 -5
7 4 8 3 4 -4 -9 -15 6 -16 20 -2 6 6 10 0 9 -18 0 -16 -4 -29 -10 -30 -5 0
-20 -3 -32 -6 -13 -2 -22 -2 -22 2 3 18 -2 32 -11 32 -6 0 -10 -7 -8 -17 2
-12 -5 -16 -29 -18 -18 -1 -30 2 -27 7 8 12 -10 10 -24 -4 -7 -7 -12 -9 -12
-5 0 4 0 10 0 15 0 4 12 7 27 7 15 1 29 7 31 14 3 8 0 11 -6 7 -6 -3 -13 -2
-16 3 -4 5 -2 12 3 15 5 4 12 2 16 -4 3 -5 11 -10 17 -10 6 0 3 9 -7 20 -17
19 -19 19 -36 4 -10 -9 -17 -20 -14 -24 2 -4 -2 -7 -10 -7 -8 0 -12 4 -9 9 8
12 -10 10 -24 -4 -14 -14 -16 -32 -4 -24 5 3 9 -1 9 -8 0 -7 -6 -13 -13 -13
-7 0 -11 4 -8 9 3 5 -5 7 -18 4 -19 -3 -23 0 -23 23 -1 24 3 27 30 26 35 -2
55 4 55 16 0 5 -11 7 -25 5 -14 -3 -23 -1 -21 3 3 4 18 7 34 7 23 0 29 -3 24
-15z m-1479 -12 c-8 -8 -13 -7 -18 2 -5 8 -4 10 3 5 7 -4 12 -2 12 5 0 7 3 9
7 6 4 -4 2 -12 -4 -18z m112 2 c-3 -6 -11 -11 -16 -11 -5 0 -4 6 3 14 14 16
24 13 13 -3z m35 9 c0 -5 -2 -10 -4 -10 -3 0 -8 5 -11 10 -3 6 -1 10 4 10 6 0
11 -4 11 -10z m-400 -24 c14 -18 14 -18 -7 -6 -12 8 -19 18 -16 23 3 4 6 7 7
5 1 -2 8 -12 16 -22z m1932 0 c7 5 8 2 3 -6 -6 -10 -4 -12 9 -7 11 4 15 3 11
-4 -4 -6 -14 -8 -22 -5 -11 5 -13 2 -9 -9 3 -9 2 -14 -3 -11 -5 3 -8 18 -8 33
0 16 2 22 4 15 3 -6 10 -9 15 -6z m-1332 -11 c-7 -9 -10 -18 -7 -22 4 -3 2
-12 -4 -20 -16 -19 5 -41 35 -38 19 2 23 -1 19 -13 -5 -13 0 -11 18 5 17 15
29 19 39 13 8 -5 18 -6 24 -3 5 3 6 2 3 -4 -4 -6 -18 -9 -33 -7 -16 1 -24 -2
-21 -9 3 -8 -6 -12 -23 -12 -21 -1 -26 3 -22 15 4 12 1 11 -15 -3 -21 -18 -41
-9 -28 13 3 6 3 10 -2 11 -4 0 -18 2 -30 5 -12 2 -25 -1 -28 -6 -3 -5 -12 -7
-20 -4 -9 4 -18 -1 -21 -11 -5 -13 -9 -14 -15 -3 -8 11 -10 11 -18 0 -6 -11
-10 -10 -15 3 -3 9 -12 15 -20 12 -7 -3 -18 -1 -24 5 -6 6 -16 7 -24 2 -15
-10 -128 -13 -133 -4 -2 4 19 6 47 6 31 -1 53 4 55 11 3 7 -5 10 -21 9 -14 -2
-30 2 -36 9 -7 8 -1 11 23 10 22 -1 35 -8 43 -24 8 -15 14 -19 19 -11 4 6 2
17 -4 24 -8 9 1 12 40 10 31 -1 55 4 64 12 11 11 14 11 19 -2 3 -9 13 -14 21
-10 8 3 17 1 21 -5 3 -6 12 -8 20 -5 9 3 11 0 7 -12 -4 -13 -2 -12 10 3 8 11
13 24 10 28 -3 5 3 15 13 22 25 19 29 19 14 0z m1012 3 c-15 -15 -16 -31 0
-22 7 4 8 3 4 -4 -6 -10 -36 -6 -36 5 0 6 32 32 40 33 2 0 -1 -5 -8 -12z
m-468 -68 c19 -30 14 -46 -15 -46 -24 0 -26 2 -18 19 7 12 16 16 27 12 13 -5
12 -2 -3 13 -13 12 -22 15 -27 9 -4 -6 -5 -14 -2 -18 7 -12 -27 -33 -55 -34
-14 -1 -35 6 -45 14 -18 15 -19 15 -13 -4 7 -20 7 -20 -8 -1 -15 20 -15 20
-31 0 -14 -18 -15 -18 -4 3 12 25 37 26 66 3 16 -13 17 -13 11 2 -3 10 -2 20
4 24 6 3 8 12 6 19 -4 8 3 11 17 10 13 -2 29 1 37 5 14 9 37 -4 53 -30z m-985
-2 c13 -21 13 -22 -2 -9 -14 11 -20 11 -34 0 -15 -13 -15 -12 -2 9 8 12 16 22
19 22 3 0 11 -10 19 -22z m1305 -6 c3 -5 -1 -9 -9 -9 -8 0 -12 4 -9 9 3 4 7 8
9 8 2 0 6 -4 9 -8z m-524 -19 c0 -3 -7 -2 -16 1 -11 4 -15 2 -11 -7 3 -7 -3
-13 -14 -13 -17 0 -17 2 -3 17 14 15 44 16 44 2z m-137 -6 c3 -8 -1 -14 -8
-14 -7 0 -11 6 -8 14 3 7 6 13 8 13 2 0 5 -6 8 -13z"/>
<path d="M15303 5225 c-83 -36 -93 -162 -17 -212 59 -38 149 -29 186 19 22 29
24 105 3 144 -28 55 -107 78 -172 49z m105 -51 c25 -17 30 -54 7 -54 -8 0 -15
4 -15 10 0 5 -13 16 -30 25 -16 9 -30 20 -30 25 0 15 43 12 68 -6z m42 -100
c0 -16 -16 -19 -25 -4 -8 13 4 32 16 25 5 -4 9 -13 9 -21z"/>
<path d="M15165 5141 c-3 -5 -2 -12 3 -15 5 -3 9 1 9 9 0 17 -3 19 -12 6z"/>
<path d="M15163 5090 c-1 -10 6 -25 15 -32 15 -12 16 -11 4 4 -8 9 -11 22 -8
27 4 5 3 12 -2 15 -4 2 -8 -4 -9 -14z"/>
<path d="M15166 5031 c-4 -5 -2 -12 3 -15 5 -4 12 -2 15 3 4 5 2 12 -3 15 -5
4 -12 2 -15 -3z"/>
<path d="M15166 4951 c-4 -5 -2 -12 3 -15 5 -4 12 -2 15 3 4 5 2 12 -3 15 -5
4 -12 2 -15 -3z"/>
<path d="M15484 4790 c-25 -10 -41 -30 -24 -30 6 0 20 5 31 11 24 13 79 2 79
-15 0 -7 -6 -26 -14 -42 -18 -39 -29 -87 -18 -80 5 3 12 18 15 33 6 30 49 82
82 101 l20 11 -20 1 c-11 0 -26 -4 -34 -9 -10 -7 -23 -3 -39 10 -27 20 -45 23
-78 9z"/>
<path d="M15375 4780 c-3 -5 1 -10 9 -10 9 0 16 5 16 10 0 6 -4 10 -9 10 -6 0
-13 -4 -16 -10z"/>
<path d="M15410 4770 c0 -5 5 -10 10 -10 6 0 10 -7 10 -15 0 -8 6 -15 14 -15
27 0 47 -97 27 -129 -8 -12 -12 -13 -25 -1 -22 18 -31 6 -11 -14 22 -21 31
-20 49 6 30 42 16 111 -32 160 -28 29 -42 35 -42 18z"/>
<path d="M15327 4763 c-4 -3 -7 -11 -7 -17 0 -6 5 -5 12 2 6 6 9 14 7 17 -3 3
-9 2 -12 -2z"/>
<path d="M15416 4689 c-8 -40 -8 -64 0 -56 10 10 22 87 14 87 -4 0 -10 -14
-14 -31z"/>
<path d="M15590 4713 c0 -5 5 -15 10 -23 8 -12 10 -11 10 8 0 12 -4 22 -10 22
-5 0 -10 -3 -10 -7z"/>
<path d="M15345 4660 c3 -5 10 -29 14 -52 l9 -43 1 37 c1 42 -7 68 -21 68 -5
0 -6 -4 -3 -10z"/>
<path d="M15301 4619 c-1 -26 33 -68 46 -55 4 3 -3 13 -14 21 -12 8 -24 25
-26 38 -4 20 -4 19 -6 -4z"/>
<path d="M15591 4622 c-10 -19 -15 -21 -27 -11 -16 13 -30 6 -19 -10 16 -27
73 1 63 31 -3 8 -9 5 -17 -10z"/>
<path d="M15656 4551 c-4 -7 -5 -15 -2 -18 9 -9 19 4 14 18 -4 11 -6 11 -12 0z"/>
<path d="M15121 4513 c-23 -20 -41 -83 -22 -83 6 0 11 9 11 21 0 12 14 34 31
50 34 32 17 42 -20 12z"/>
<path d="M15255 4490 c-3 -5 -1 -10 4 -10 6 0 11 5 11 10 0 6 -2 10 -4 10 -3
0 -8 -4 -11 -10z"/>
<path d="M15592 4188 c-6 -6 -42 -12 -81 -12 -38 -1 -67 -4 -65 -8 9 -15 88
-19 130 -8 49 14 80 40 47 40 -10 0 -24 -5 -31 -12z"/>
<path d="M15366 4023 c-6 -14 -5 -15 5 -6 7 7 10 15 7 18 -3 3 -9 -2 -12 -12z"/>
<path d="M15383 3955 c-2 -8 -11 -11 -18 -9 -7 3 -15 1 -19 -4 -9 -15 35 -7
45 9 8 12 10 12 19 -1 9 -13 10 -13 10 0 0 13 1 13 11 0 8 -11 12 -12 16 -2 2
6 10 9 16 5 7 -3 9 -2 5 2 -14 14 -79 14 -85 0z"/>
<path d="M15267 3916 c-4 -10 -1 -13 8 -9 8 3 12 9 9 14 -7 12 -11 11 -17 -5z"/>
<path d="M15836 3777 c-89 -84 -73 -210 34 -265 33 -17 54 -21 80 -17 42 8 54
17 92 69 50 69 36 162 -32 220 -26 21 -42 26 -85 26 -47 0 -58 -4 -89 -33z
m138 -73 c20 -19 30 -59 21 -75 -5 -7 -18 6 -36 35 -16 25 -29 48 -29 51 0 11
30 4 44 -11z m-52 -64 c25 -44 26 -50 10 -50 -35 0 -68 46 -57 80 9 30 17 25
47 -30z"/>
<path d="M15026 3471 c-4 -5 -2 -12 3 -15 5 -4 12 -2 15 3 4 5 2 12 -3 15 -5
4 -12 2 -15 -3z"/>
<path d="M15010 3410 c0 -5 5 -10 10 -10 6 0 10 5 10 10 0 6 -4 10 -10 10 -5
0 -10 -4 -10 -10z"/>
<path d="M15620 3459 c-14 -5 -34 -22 -43 -38 -52 -88 25 -192 118 -161 40 13
75 59 75 98 0 36 -27 80 -60 97 -33 17 -53 18 -90 4z m96 -32 c35 -31 38 -86
5 -121 -26 -27 -65 -38 -80 -23 -6 6 -11 7 -11 2 0 -5 -11 2 -25 15 -36 33
-36 103 0 126 14 9 32 14 40 10 9 -3 13 -2 10 4 -12 20 35 9 61 -13z"/>
<path d="M15617 3389 c-8 -11 -13 -29 -10 -39 5 -20 51 -43 74 -38 8 2 13 -3
11 -10 -1 -8 2 -11 7 -7 6 3 8 12 5 19 -3 8 -1 17 5 20 12 8 4 58 -12 68 -23
15 -66 8 -80 -13z"/>
<path d="M14185 2767 c-23 -36 -37 -89 -25 -101 14 -14 20 -5 36 59 17 64 13
79 -11 42z"/>
<path d="M14256 2762 c-11 -18 -24 -94 -19 -112 3 -11 12 -20 19 -20 11 0 14
17 14 70 0 67 -3 80 -14 62z"/>
<path d="M14330 2718 c0 -55 20 -102 34 -79 8 13 -13 119 -26 127 -4 3 -8 -19
-8 -48z"/>
<path d="M14664 1991 c0 -11 5 -17 13 -14 10 4 11 9 2 19 -15 18 -15 18 -15
-5z"/>
<path d="M14766 1993 c-6 -14 -5 -15 5 -6 7 7 10 15 7 18 -3 3 -9 -2 -12 -12z"/>
<path d="M14899 1863 c-13 -16 -12 -17 4 -4 9 7 17 15 17 17 0 8 -8 3 -21 -13z"/>
<path d="M15806 1527 c3 -10 9 -15 12 -12 3 3 0 11 -7 18 -10 9 -11 8 -5 -6z"/>
<path d="M15820 1500 c-9 -6 -10 -10 -3 -10 6 0 15 5 18 10 8 12 4 12 -15 0z"/>
<path d="M16415 1460 c-2 -3 0 -11 4 -18 6 -9 12 -8 24 6 15 17 15 18 -4 18
-11 0 -22 -3 -24 -6z"/>
<path d="M16607 1464 c-3 -4 -2 -15 4 -25 10 -20 34 -16 43 7 3 9 1 12 -5 9
-5 -4 -16 -2 -23 4 -7 6 -16 8 -19 5z m21 -29 c-3 -3 -9 2 -12 12 -6 14 -5 15
5 6 7 -7 10 -15 7 -18z"/>
<path d="M16557 1442 c-15 -16 -15 -18 1 -18 10 0 18 8 18 18 0 10 -1 18 -2
18 0 0 -8 -8 -17 -18z"/>
<path d="M15231 1421 c-7 -5 -30 -8 -52 -7 -37 2 -38 1 -22 -16 14 -16 19 -16
32 -4 9 7 26 12 39 11 13 -1 25 2 28 6 7 12 -10 19 -25 10z"/>
<path d="M15284 1400 c0 -13 4 -16 10 -10 7 7 7 13 0 20 -6 6 -10 3 -10 -10z"/>
<path d="M15256 1391 c-3 -4 -17 -7 -32 -5 -14 1 -23 0 -20 -4 12 -11 46 -9
57 5 6 7 9 13 6 13 -3 0 -8 -4 -11 -9z"/>
<path d="M15860 1410 c-9 -6 -10 -10 -3 -10 6 0 15 5 18 10 8 12 4 12 -15 0z"/>
<path d="M15818 1391 c-10 -10 -14 -22 -9 -30 6 -9 11 -10 15 -2 4 6 2 11 -5
11 -7 0 -9 3 -5 7 4 5 13 0 21 -10 9 -13 14 -14 18 -4 2 7 0 20 -7 28 -10 14
-13 14 -28 0z"/>
<path d="M23065 4950 c-4 -6 -1 -432 7 -948 15 -1056 17 -1904 5 -2064 l-8
-108 1094 0 c923 0 1096 2 1106 14 9 11 8 62 -5 212 -12 152 -18 416 -24 1124
-5 509 -11 1006 -15 1105 -4 103 -3 279 4 414 8 173 8 237 0 247 -10 12 -195
14 -1085 14 -723 0 -1075 -3 -1079 -10z"/>
<path d="M26345 4940 c-226 -40 -335 -86 -494 -205 -204 -154 -304 -300 -360
-526 -42 -172 -46 -241 -46 -779 0 -457 2 -525 18 -604 54 -266 153 -454 336
-636 177 -177 366 -276 644 -337 77 -17 173 -18 1642 -18 l1560 0 -1 664 c-2
640 -2 665 -20 671 -11 3 -334 1 -719 -4 -721 -9 -861 -6 -1043 29 -152 29
-264 109 -277 199 -16 105 75 218 211 264 58 19 204 20 834 3 228 -6 547 -12
708 -13 251 -3 294 -1 302 12 6 9 9 262 7 655 l-2 640 -1600 2 c-1500 1 -1606
0 -1700 -17z"/>
<path d="M7732 1725 c-89 -101 -189 -406 -199 -605 -5 -97 -4 -106 15 -123 11
-10 31 -17 43 -15 19 2 26 14 39 68 18 68 59 178 93 245 59 118 236 363 278
386 57 30 46 -64 -19 -161 -44 -67 -131 -153 -172 -170 -36 -15 -38 -34 -5
-56 18 -11 35 -14 64 -9 57 9 79 0 90 -41 31 -112 -147 -270 -381 -338 -79
-23 -82 -25 -55 -35 104 -40 320 31 432 144 64 63 97 131 97 202 1 46 -4 59
-28 84 -17 18 -43 32 -66 36 l-39 6 50 33 c58 39 112 103 140 165 36 77 22
195 -24 213 -45 17 -68 6 -135 -63 -107 -111 -222 -290 -285 -444 -46 -112
-46 -65 0 106 38 138 97 278 140 328 27 33 32 58 13 77 -22 22 -46 13 -86 -33z
m348 -215 c-6 -11 -13 -20 -16 -20 -2 0 0 9 6 20 6 11 13 20 16 20 2 0 0 -9
-6 -20z m-503 -282 c-3 -8 -6 -5 -6 6 -1 11 2 17 5 13 3 -3 4 -12 1 -19z m364
-141 c-12 -19 -28 -37 -36 -40 -8 -3 0 13 18 37 38 51 49 52 18 3z"/>
<path d="M11574 1732 c-16 -9 -67 -93 -104 -168 l-31 -61 -52 -7 c-29 -3 -70
-6 -92 -6 -51 0 -86 -10 -79 -21 3 -5 50 -9 104 -9 l99 0 -19 -52 c-62 -175
-79 -207 -143 -264 -37 -34 -42 -36 -45 -19 -1 11 9 54 23 95 24 70 24 76 8
87 -9 7 -21 13 -26 13 -12 0 -49 -41 -127 -142 -39 -51 -67 -78 -80 -78 -11 0
-20 4 -20 9 0 13 64 159 85 197 22 37 14 64 -19 64 -32 0 -53 -23 -95 -105
-24 -47 -51 -80 -93 -115 -66 -55 -84 -62 -74 -27 4 12 10 38 13 58 3 20 23
60 44 88 22 28 39 62 39 75 0 25 -23 56 -42 56 -16 0 -82 -72 -139 -153 l-51
-72 7 50 c7 52 25 93 56 134 24 30 9 54 -30 49 -22 -3 -30 -15 -58 -87 -18
-46 -35 -99 -39 -118 -7 -35 -74 -103 -102 -103 -21 0 -11 63 23 134 30 64 26
76 -27 76 -30 0 -50 -28 -63 -90 -4 -19 -16 -46 -27 -60 -36 -46 -99 -110
-109 -110 -18 0 -9 52 20 118 42 96 53 145 41 176 -21 56 -82 25 -149 -75 -48
-71 -51 -63 -15 29 24 60 26 68 13 91 -8 14 -24 27 -36 29 -29 4 -92 -76 -147
-185 -22 -46 -43 -83 -47 -83 -12 0 13 84 33 112 18 26 18 29 2 53 -9 14 -22
25 -29 25 -13 0 -43 -63 -65 -135 -8 -26 -26 -52 -52 -72 -47 -39 -68 -42 -68
-11 0 28 29 108 47 129 20 24 16 48 -11 55 -46 11 -60 1 -81 -59 -16 -47 -30
-66 -75 -102 -77 -63 -79 -62 -55 31 8 33 30 76 50 102 39 51 44 81 16 106
-15 14 -24 15 -39 7 -24 -13 -89 -89 -136 -161 l-36 -55 0 35 c0 32 33 112 61
151 19 25 4 49 -30 49 -28 0 -31 -5 -61 -87 -42 -114 -49 -181 -22 -206 25
-22 45 -14 64 26 15 31 108 155 108 144 0 -3 -9 -24 -20 -48 -19 -44 -27 -134
-12 -155 11 -16 55 -44 69 -44 7 0 31 18 53 41 l40 41 33 -36 c43 -45 77 -47
113 -6 l27 30 23 -25 c13 -14 29 -25 36 -25 7 0 39 51 70 112 56 112 115 204
125 195 2 -3 -5 -27 -16 -53 -12 -26 -19 -57 -16 -68 5 -15 4 -17 -3 -7 -8 11
-11 10 -15 -5 -22 -78 -14 -134 18 -134 8 0 27 21 42 48 35 59 105 154 110
148 2 -2 -8 -32 -23 -67 -20 -47 -28 -81 -28 -127 -1 -58 2 -66 27 -88 15 -13
37 -24 47 -24 10 0 42 27 72 60 l52 60 31 -30 c43 -42 76 -40 117 9 29 35 34
38 53 25 25 -16 33 -11 73 51 17 28 48 68 67 90 l35 40 -21 -38 c-13 -22 -23
-63 -26 -100 -5 -61 -4 -64 27 -90 17 -15 39 -27 47 -27 9 0 33 17 53 39 l37
39 9 -36 c5 -19 16 -39 24 -45 28 -17 84 17 139 83 l51 62 -6 -40 c-15 -97 53
-117 140 -42 40 36 42 32 21 -55 -22 -92 -20 -141 10 -170 50 -51 81 -28 217
156 64 88 74 97 79 76 11 -42 29 -67 59 -82 41 -21 76 -19 116 9 35 23 116
111 134 146 6 11 27 20 59 24 45 6 78 25 65 38 -3 3 -22 2 -42 -3 -61 -14 -61
-15 -46 49 8 31 11 69 8 84 -6 28 -65 88 -87 88 -27 0 -76 -40 -93 -77 -12
-25 -31 -45 -54 -56 -22 -10 -55 -43 -85 -84 -99 -136 -235 -300 -266 -318
-35 -22 23 189 114 418 l50 127 46 2 c25 0 54 0 65 -1 18 -1 46 15 46 28 0 4
-32 5 -71 3 l-71 -4 28 53 c15 30 45 79 67 110 22 32 36 62 33 68 -8 12 -75
15 -92 3z m309 -372 c-3 -80 -23 -134 -51 -138 -51 -7 -65 35 -35 110 20 52
52 90 73 85 11 -2 15 -15 13 -57z m-462 -107 c-12 -20 -14 -14 -5 12 4 9 9 14
11 11 3 -2 0 -13 -6 -23z m382 -47 l38 -13 -34 -49 c-38 -56 -92 -96 -122 -92
-30 4 -25 61 14 143 31 67 31 67 48 46 10 -12 35 -28 56 -35z"/>
<path d="M2855 1708 c-47 -26 -65 -51 -65 -92 0 -54 28 -82 110 -106 81 -24
108 -49 92 -85 -21 -46 -120 -50 -151 -5 -17 25 -61 27 -61 3 1 -48 59 -84
135 -84 86 0 134 36 135 102 0 56 -30 85 -111 110 -99 30 -121 57 -79 99 29
29 84 27 116 -5 14 -14 36 -25 49 -25 29 0 30 2 10 39 -26 51 -127 79 -180 49z"/>
<path d="M3107 1713 c-4 -3 -7 -15 -7 -25 0 -15 8 -18 60 -18 l60 0 0 -165 0
-165 25 0 25 0 2 163 3 162 58 3 c53 3 57 5 57 27 l0 25 -138 0 c-76 0 -142
-3 -145 -7z"/>
<path d="M3496 1535 c-36 -102 -66 -188 -66 -190 0 -3 13 -5 29 -5 26 0 31 5
46 50 l17 50 73 0 73 0 17 -50 c15 -45 19 -50 47 -50 23 0 29 4 24 15 -3 9
-31 86 -61 171 -69 194 -69 194 -104 194 -28 0 -30 -4 -95 -185z m128 27 l25
-72 -55 0 c-30 0 -54 2 -54 3 0 4 34 104 45 136 8 20 12 12 39 -67z"/>
<path d="M3820 1530 l0 -190 25 0 c24 0 25 2 25 70 l0 70 43 0 c42 0 42 -1 78
-68 31 -60 38 -67 68 -70 l34 -3 -41 74 -40 74 28 27 c49 46 51 123 5 166 -28
27 -80 39 -162 40 l-63 0 0 -190z m159 129 c34 -12 47 -42 37 -84 -8 -31 -41
-45 -102 -45 l-44 0 0 70 0 70 39 0 c21 0 52 -5 70 -11z"/>
<path d="M4130 1695 c0 -24 3 -25 55 -25 l55 0 2 -162 3 -163 28 -3 27 -3 0
165 0 166 61 0 c57 0 60 1 57 23 -3 21 -6 22 -145 25 l-143 3 0 -26z"/>
<path d="M4480 1585 c0 -155 11 -193 62 -225 45 -27 131 -27 176 0 51 32 62
70 62 225 l0 136 -27 -3 -28 -3 -5 -143 c-5 -136 -6 -145 -29 -163 -14 -11
-39 -19 -61 -19 -22 0 -47 8 -61 19 -23 18 -24 27 -29 163 l-5 143 -27 3 -28
3 0 -136z"/>
<path d="M4860 1531 l0 -191 30 0 30 0 0 65 0 65 43 0 c70 0 116 18 137 53 38
61 19 150 -37 177 -15 7 -67 15 -115 18 l-88 4 0 -191z m188 116 c9 -10 16
-33 16 -53 0 -50 -31 -74 -95 -74 l-49 0 0 76 0 76 56 -4 c32 -3 62 -11 72
-21z"/>
<path d="M9102 1702 c-52 -52 -172 -316 -210 -462 -41 -156 -38 -182 25 -242
52 -49 71 -46 135 19 31 32 79 91 107 132 28 41 51 73 51 70 0 -2 -7 -29 -15
-59 -8 -30 -18 -93 -21 -140 -6 -83 -6 -86 21 -118 35 -41 74 -43 110 -5 25
28 44 88 31 101 -4 3 -22 -11 -41 -33 -18 -22 -36 -37 -39 -34 -25 24 17 212
85 384 37 95 48 116 93 179 18 25 18 27 1 46 -24 27 -60 25 -80 -2 -9 -13 -69
-103 -133 -200 -119 -180 -222 -308 -248 -308 -40 0 -12 152 62 338 25 62 42
118 38 125 -4 6 -3 9 1 5 5 -5 21 13 37 40 16 26 40 62 53 81 22 30 24 37 12
54 -7 11 -23 27 -34 35 -19 12 -24 11 -41 -6z m105 -594 c-3 -7 -5 -2 -5 12 0
14 2 19 5 13 2 -7 2 -19 0 -25z m-10 -50 c-3 -7 -5 -2 -5 12 0 14 2 19 5 13 2
-7 2 -19 0 -25z"/>
<path d="M18251 1703 c-38 -19 -66 -73 -56 -110 9 -38 39 -60 111 -83 79 -24
94 -34 94 -65 0 -59 -104 -81 -146 -31 -14 15 -33 26 -49 26 -24 0 -25 -1 -12
-32 15 -37 58 -65 102 -68 78 -5 97 0 131 34 67 67 33 149 -72 175 -73 19
-104 38 -104 66 0 54 91 75 136 30 31 -31 75 -35 67 -6 -3 10 -18 31 -34 47
-37 35 -116 44 -168 17z"/>
<path d="M18530 1530 l0 -190 25 0 25 0 0 190 0 190 -25 0 -25 0 0 -190z"/>
<path d="M18670 1530 l0 -190 25 0 25 0 0 138 1 137 24 -30 c13 -16 57 -78 97
-137 63 -93 77 -108 101 -108 l27 0 0 191 0 190 -27 -3 -28 -3 -5 -134 -5
-133 -95 136 c-74 108 -99 136 -117 136 l-23 0 0 -190z"/>
<path d="M19126 1697 c-112 -63 -115 -262 -6 -335 30 -20 45 -23 98 -20 56 4
66 8 96 38 19 19 37 45 41 58 6 19 3 22 -24 22 -17 0 -31 -5 -31 -10 0 -6 -11
-22 -25 -35 -38 -39 -97 -35 -142 10 -35 35 -35 36 -31 109 3 62 7 79 27 100
48 51 142 40 170 -20 7 -16 19 -24 36 -24 31 0 32 17 2 61 -45 68 -138 88
-211 46z"/>
<path d="M19430 1530 l0 -190 120 0 120 0 0 25 c0 25 -1 25 -90 25 l-90 0 0
55 0 55 80 0 c79 0 80 0 80 25 0 25 -1 25 -80 25 l-80 0 0 60 0 60 85 0 c84 0
85 0 85 25 l0 25 -115 0 -115 0 0 -190z"/>
<path d="M15477 1556 c-8 -21 9 -30 59 -31 32 -1 41 3 39 15 -2 8 -4 18 -4 23
-1 12 -41 8 -41 -4 0 -6 7 -9 15 -6 8 4 17 3 19 -2 3 -4 -11 -7 -30 -7 -19 1
-38 7 -43 14 -7 11 -9 11 -14 -2z"/>
<path d="M15500 1560 c0 -5 5 -10 10 -10 6 0 10 5 10 10 0 6 -4 10 -10 10 -5
0 -10 -4 -10 -10z"/>
<path d="M15587 1558 c6 -7 9 -28 8 -45 -1 -31 6 -37 11 -10 13 62 14 71 4 57
-6 -10 -10 -11 -10 -2 0 6 -5 12 -11 12 -8 0 -8 -4 -2 -12z"/>
<path d="M15660 1560 c0 -5 5 -10 10 -10 6 0 10 5 10 10 0 6 -4 10 -10 10 -5
0 -10 -4 -10 -10z"/>
<path d="M15775 1560 c-3 -5 -1 -10 4 -10 6 0 11 5 11 10 0 6 -2 10 -4 10 -3
0 -8 -4 -11 -10z"/>
<path d="M15850 1561 c0 -5 7 -12 16 -15 14 -5 15 -4 4 9 -14 17 -20 19 -20 6z"/>
<path d="M9844 1516 c-3 -7 -4 -17 -3 -22 5 -18 -13 -73 -27 -85 -16 -13 -19
-45 -4 -54 13 -8 72 36 66 51 -2 6 6 24 20 40 26 32 30 54 12 72 -16 16 -57
15 -64 -2z"/>
<path d="M10529 1523 c0 -5 -1 -25 -3 -45 -2 -20 -10 -48 -19 -62 -20 -30 -22
-66 -4 -66 17 0 60 45 63 66 2 9 13 27 25 40 19 20 21 27 11 49 -9 19 -19 25
-42 25 -16 0 -30 -3 -31 -7z"/>
<path d="M15721 1507 c-8 -10 -7 -14 2 -14 8 0 14 6 14 14 0 7 -1 13 -2 13 -2
0 -8 -6 -14 -13z"/>
<path d="M15556 1501 c-4 -5 -2 -12 3 -15 5 -4 12 -2 15 3 4 5 2 12 -3 15 -5
4 -12 2 -15 -3z"/>
<path d="M15676 1498 c3 -5 10 -6 15 -3 13 9 11 12 -6 12 -8 0 -12 -4 -9 -9z"/>
<path d="M15756 1498 c3 -5 10 -6 15 -3 13 9 11 12 -6 12 -8 0 -12 -4 -9 -9z"/>
<path d="M14570 1491 c-8 -6 -18 -7 -22 -5 -4 3 -6 -5 -4 -18 3 -13 5 -26 5
-30 1 -5 6 -8 12 -8 6 0 9 6 6 14 -7 19 15 37 32 27 10 -6 9 -10 -4 -15 -9 -3
-15 -12 -12 -19 3 -8 -3 -14 -15 -14 -10 -1 -22 5 -25 13 -5 13 -8 13 -15 2
-7 -10 -8 -9 -4 5 6 19 -4 23 -21 6 -8 -8 -13 -7 -18 2 -6 8 -4 10 5 4 8 -5
11 -4 6 3 -4 6 3 9 19 8 13 -2 22 1 19 5 -6 10 -33 7 -52 -4 -16 -11 -1 -39
24 -44 66 -14 106 -9 98 12 -3 7 -1 16 5 20 7 4 9 -1 5 -12 -5 -15 -4 -16 5
-3 9 12 11 10 7 -12 -5 -32 8 -46 19 -20 13 29 12 50 -1 45 -7 -2 -20 7 -29
21 -19 29 -23 30 -45 17z"/>
<path d="M15870 1491 c0 -7 -4 -9 -10 -6 -5 3 -10 1 -10 -5 0 -6 6 -10 13 -9
21 4 50 -13 37 -21 -8 -5 -4 -15 14 -33 21 -21 27 -23 37 -11 9 12 9 13 -3 9
-15 -6 -41 16 -36 32 2 4 -7 19 -19 33 -13 13 -23 18 -23 11z"/>
<path d="M14699 1483 c-8 -52 -5 -69 12 -70 23 -2 30 9 18 27 -8 13 -10 13
-19 0 -7 -12 -9 -10 -8 7 2 14 7 19 18 15 13 -5 13 -3 1 11 -15 19 -20 21 -22
10z"/>
<path d="M15445 1471 c-3 -5 -2 -12 3 -15 5 -3 9 1 9 9 0 17 -3 19 -12 6z"/>
<path d="M15470 1465 c0 -2 6 -8 13 -14 10 -8 14 -7 14 2 0 8 -6 14 -14 14 -7
0 -13 -1 -13 -2z"/>
<path d="M15556 1458 c3 -5 10 -6 15 -3 13 9 11 12 -6 12 -8 0 -12 -4 -9 -9z"/>
<path d="M15636 1458 c3 -5 10 -6 15 -3 13 9 11 12 -6 12 -8 0 -12 -4 -9 -9z"/>
<path d="M15676 1462 c-3 -5 1 -9 9 -9 8 0 12 4 9 9 -3 4 -7 8 -9 8 -2 0 -6
-4 -9 -8z"/>
<path d="M15716 1458 c3 -5 10 -6 15 -3 13 9 11 12 -6 12 -8 0 -12 -4 -9 -9z"/>
<path d="M15297 1444 c3 -7 9 -14 14 -14 14 0 10 17 -5 23 -10 4 -13 1 -9 -9z"/>
<path d="M14931 1413 c8 -13 16 -23 19 -23 3 0 11 10 19 23 13 20 13 21 -2 8
-14 -11 -20 -11 -34 0 -15 13 -15 12 -2 -8z"/>
<path d="M15394 1418 c-4 -7 -4 -10 1 -6 4 4 15 2 24 -5 14 -11 14 -10 2 6
-16 20 -18 21 -27 5z"/>
<path d="M15636 1378 c3 -5 10 -6 15 -3 13 9 11 12 -6 12 -8 0 -12 -4 -9 -9z"/>
<path d="M8205 1324 c-28 -30 -86 -200 -88 -255 -4 -106 97 -89 220 36 39 40
70 68 68 62 -2 -7 -13 -45 -25 -85 -20 -70 -26 -78 -119 -170 -113 -113 -181
-209 -181 -256 0 -37 39 -81 83 -91 79 -20 135 61 221 321 l47 141 96 79 c152
124 149 121 138 133 -8 8 -41 -13 -110 -68 -55 -43 -102 -77 -104 -75 -2 2 13
38 35 79 42 83 40 107 -9 113 -18 2 -29 -3 -38 -20 -20 -38 -127 -152 -179
-192 -95 -73 -93 -32 11 222 12 28 12 34 -1 42 -24 16 -39 12 -65 -16z m99
-466 c-36 -102 -89 -210 -113 -232 -30 -27 -51 -14 -51 33 0 29 10 54 39 97
37 54 137 174 147 174 2 0 -8 -33 -22 -72z"/>
<path d="M18511 1233 c-20 -10 -39 -30 -47 -50 -18 -43 -19 -43 16 -43 18 0
30 5 30 13 0 22 34 47 63 47 30 0 67 -31 67 -56 0 -28 -22 -57 -107 -147 -45
-48 -83 -97 -83 -108 0 -18 8 -19 125 -19 l125 0 0 25 c0 25 -1 25 -87 25
l-87 0 60 63 c87 89 104 114 104 156 0 87 -93 136 -179 94z"/>
<path d="M18840 1233 c-64 -33 -95 -147 -70 -252 30 -125 161 -158 234 -58 25
34 35 168 17 226 -24 82 -109 121 -181 84z m114 -66 c28 -38 30 -165 3 -214
-31 -58 -91 -53 -123 9 -12 23 -15 51 -12 109 3 66 7 81 28 104 32 34 75 31
104 -8z"/>
<path d="M19163 1236 c-29 -13 -63 -59 -63 -86 0 -5 11 -10 25 -10 18 0 28 7
35 25 10 27 47 41 85 31 32 -8 48 -46 34 -83 -5 -14 -48 -65 -94 -113 -54 -55
-85 -94 -85 -108 0 -21 3 -22 126 -22 124 0 125 0 122 23 -3 20 -9 22 -86 25
l-84 3 67 70 c83 88 102 126 89 175 -16 67 -102 101 -171 70z"/>
<path d="M19433 1153 c-6 -49 -6 -92 -2 -97 5 -6 30 -4 63 4 49 11 58 11 80
-4 49 -31 45 -107 -5 -135 -22 -12 -31 -12 -57 -2 -17 7 -34 22 -37 32 -4 12
-16 19 -31 19 -55 0 -7 -85 56 -99 109 -23 198 74 157 172 -9 19 -27 43 -41
53 -31 20 -99 22 -121 4 -17 -14 -19 -1 -9 63 l7 37 78 0 c72 0 79 2 79 20 0
19 -7 20 -104 20 l-104 0 -9 -87z"/>
</g>
</svg>
